M48
; DRILL file {KiCad 9.0.1} date 2025-07-02T23:46:11-0400
; FORMAT={-:-/ absolute / metric / decimal}
; #@! TF.CreationDate,2025-07-02T23:46:11-04:00
; #@! TF.GenerationSoftware,Kicad,Pcbnew,9.0.1
; #@! TF.FileFunction,Plated,1,2,PTH
FMAT,2
METRIC
; #@! TA.AperFunction,Plated,PTH,ComponentDrill
T1C0.800
; #@! TA.AperFunction,Plated,PTH,ComponentDrill
T2C0.813
; #@! TA.AperFunction,Plated,PTH,ComponentDrill
T3C2.500
%
G90
G05
T1
X120.546Y-81.571
X120.646Y-95.101
X121.076Y-110.791
X121.106Y-67.401
X121.256Y-52.151
X128.166Y-81.571
X128.266Y-95.101
X128.696Y-110.791
X128.726Y-67.401
X128.876Y-52.151
X132.816Y-95.101
X132.976Y-110.791
X134.116Y-81.571
X134.356Y-52.151
X134.626Y-67.401
X140.436Y-95.101
X140.596Y-110.791
X141.736Y-81.571
X141.976Y-52.151
X142.246Y-67.401
X147.116Y-110.791
X147.206Y-95.101
X147.376Y-81.571
X147.756Y-52.151
X148.196Y-67.401
X154.736Y-110.791
X154.826Y-95.101
X154.996Y-81.571
X155.376Y-52.151
X155.816Y-67.401
X159.516Y-52.151
X159.826Y-67.401
X160.566Y-81.571
X161.076Y-95.101
X162.106Y-110.791
X167.136Y-52.151
X167.446Y-67.401
X168.186Y-81.571
X168.696Y-95.101
X169.726Y-110.791
X175.436Y-51.55
X175.436Y-66.8
X175.436Y-80.97
X175.436Y-94.5
X175.436Y-110.19
X183.056Y-51.55
X183.056Y-66.8
X183.056Y-80.97
X183.056Y-94.5
X183.056Y-110.19
T2
X120.476Y-87.971
X120.526Y-74.081
X120.95Y-116.84
X121.136Y-102.691
X121.326Y-60.101
X128.096Y-87.971
X128.146Y-74.081
X128.57Y-116.84
X128.756Y-102.691
X128.946Y-60.101
X133.006Y-102.691
X133.326Y-60.101
X133.35Y-116.84
X134.026Y-87.971
X134.966Y-74.081
X140.626Y-102.691
X140.946Y-60.101
X140.97Y-116.84
X141.646Y-87.971
X142.586Y-74.081
X146.596Y-87.971
X146.996Y-102.691
X147.076Y-60.101
X147.15Y-116.84
X147.69Y-74.25
X154.216Y-87.971
X154.616Y-102.691
X154.696Y-60.101
X154.77Y-116.84
X155.31Y-74.25
X158.866Y-87.971
X159.536Y-60.101
X160.166Y-74.081
X160.526Y-102.691
X162.2Y-116.84
X166.486Y-87.971
X167.156Y-60.101
X167.786Y-74.081
X168.146Y-102.691
X169.82Y-116.84
X175.19Y-59.5
X175.19Y-73.48
X175.19Y-87.37
X175.19Y-102.09
X175.19Y-116.239
X182.81Y-59.5
X182.81Y-73.48
X182.81Y-87.37
X182.81Y-102.09
X182.81Y-116.239
T3
X108.656Y-60.391
X108.656Y-74.021
X108.656Y-87.051
X108.656Y-101.6
X108.656Y-115.57
X128.873Y-39.951
X142.24Y-39.951
X155.816Y-39.951
X167.956Y-39.951
X180.086Y-39.951
M30
