%TF.GenerationSoftware,KiCad,Pcbnew,9.0.1*%
%TF.CreationDate,2025-07-02T23:46:09-04:00*%
%TF.ProjectId,5x5,3578352e-6b69-4636-9164-5f7063625858,rev?*%
%TF.SameCoordinates,Original*%
%TF.FileFunction,Copper,L1,Top*%
%TF.FilePolarity,Positive*%
%FSLAX46Y46*%
G04 Gerber Fmt 4.6, Leading zero omitted, Abs format (unit mm)*
G04 Created by KiCad (PCBNEW 9.0.1) date 2025-07-02 23:46:09*
%MOMM*%
%LPD*%
G01*
G04 APERTURE LIST*
%TA.AperFunction,ComponentPad*%
%ADD10C,5.000000*%
%TD*%
%TA.AperFunction,ComponentPad*%
%ADD11C,1.600000*%
%TD*%
%TA.AperFunction,ComponentPad*%
%ADD12O,1.600000X1.600000*%
%TD*%
%TA.AperFunction,ComponentPad*%
%ADD13O,2.641600X1.320800*%
%TD*%
%TA.AperFunction,Conductor*%
%ADD14C,0.200000*%
%TD*%
G04 APERTURE END LIST*
D10*
%TO.P,H1,1,Pin_1*%
%TO.N,Net-(D1-K)*%
X108656250Y-60391250D03*
%TD*%
%TO.P,H2,1,Pin_1*%
%TO.N,Net-(D10-K)*%
X108656250Y-74021250D03*
%TD*%
%TO.P,H3,1,Pin_1*%
%TO.N,Net-(D11-K)*%
X108656250Y-87051250D03*
%TD*%
%TO.P,H5,1,Pin_1*%
%TO.N,Net-(D21-K)*%
X108656250Y-115570000D03*
%TD*%
%TO.P,H4,1,Pin_1*%
%TO.N,Net-(D16-K)*%
X108656250Y-101600000D03*
%TD*%
D11*
%TO.P,Thing23,1,K*%
%TO.N,Net-(D23-A)*%
X147116250Y-110791250D03*
D12*
%TO.P,Thing23,2,A*%
%TO.N,Net-(H8-Pin_1)*%
X154736250Y-110791250D03*
%TD*%
D11*
%TO.P,Thing15,1,K*%
%TO.N,Net-(D15-A)*%
X175435800Y-80970000D03*
D12*
%TO.P,Thing15,2,A*%
%TO.N,Net-(H10-Pin_1)*%
X183055800Y-80970000D03*
%TD*%
D13*
%TO.P,D6,1,K*%
%TO.N,Net-(D10-K)*%
X128146250Y-74081250D03*
%TO.P,D6,2,A*%
%TO.N,Net-(D6-A)*%
X120526250Y-74081250D03*
%TD*%
%TO.P,D4,1,K*%
%TO.N,Net-(D1-K)*%
X167156250Y-60101250D03*
%TO.P,D4,2,A*%
%TO.N,Net-(D4-A)*%
X159536250Y-60101250D03*
%TD*%
%TO.P,D15,1,K*%
%TO.N,Net-(D11-K)*%
X182810000Y-87370000D03*
%TO.P,D15,2,A*%
%TO.N,Net-(D15-A)*%
X175190000Y-87370000D03*
%TD*%
%TO.P,D18,1,K*%
%TO.N,Net-(D16-K)*%
X154616250Y-102691250D03*
%TO.P,D18,2,A*%
%TO.N,Net-(D18-A)*%
X146996250Y-102691250D03*
%TD*%
D11*
%TO.P,Thing9,1,K*%
%TO.N,Net-(D9-A)*%
X159826250Y-67401250D03*
D12*
%TO.P,Thing9,2,A*%
%TO.N,Net-(H9-Pin_1)*%
X167446250Y-67401250D03*
%TD*%
D11*
%TO.P,Thing7,1,K*%
%TO.N,Net-(D7-A)*%
X134626250Y-67401250D03*
D12*
%TO.P,Thing7,2,A*%
%TO.N,Net-(H7-Pin_1)*%
X142246250Y-67401250D03*
%TD*%
D10*
%TO.P,H9,1,Pin_1*%
%TO.N,Net-(H9-Pin_1)*%
X167956250Y-39951250D03*
%TD*%
D11*
%TO.P,Thing2,1,K*%
%TO.N,Net-(D2-A)*%
X134356250Y-52151250D03*
D12*
%TO.P,Thing2,2,A*%
%TO.N,Net-(H7-Pin_1)*%
X141976250Y-52151250D03*
%TD*%
D11*
%TO.P,Thing25,1,K*%
%TO.N,Net-(D25-A)*%
X175435800Y-110190000D03*
D12*
%TO.P,Thing25,2,A*%
%TO.N,Net-(H10-Pin_1)*%
X183055800Y-110190000D03*
%TD*%
D11*
%TO.P,Thing22,1,K*%
%TO.N,Net-(D22-A)*%
X132976250Y-110791250D03*
D12*
%TO.P,Thing22,2,A*%
%TO.N,Net-(H7-Pin_1)*%
X140596250Y-110791250D03*
%TD*%
D13*
%TO.P,D25,1,K*%
%TO.N,Net-(D21-K)*%
X182810000Y-116238750D03*
%TO.P,D25,2,A*%
%TO.N,Net-(D25-A)*%
X175190000Y-116238750D03*
%TD*%
D11*
%TO.P,Thing21,1,K*%
%TO.N,Net-(D21-A)*%
X121076250Y-110791250D03*
D12*
%TO.P,Thing21,2,A*%
%TO.N,Net-(H6-Pin_1)*%
X128696250Y-110791250D03*
%TD*%
D11*
%TO.P,Thing3,1,K*%
%TO.N,Net-(D3-A)*%
X147756250Y-52151250D03*
D12*
%TO.P,Thing3,2,A*%
%TO.N,Net-(H8-Pin_1)*%
X155376250Y-52151250D03*
%TD*%
D13*
%TO.P,D2,1,K*%
%TO.N,Net-(D1-K)*%
X140946250Y-60101250D03*
%TO.P,D2,2,A*%
%TO.N,Net-(D2-A)*%
X133326250Y-60101250D03*
%TD*%
D10*
%TO.P,H10,1,Pin_1*%
%TO.N,Net-(H10-Pin_1)*%
X180086250Y-39951250D03*
%TD*%
D13*
%TO.P,D7,1,K*%
%TO.N,Net-(D10-K)*%
X142586250Y-74081250D03*
%TO.P,D7,2,A*%
%TO.N,Net-(D7-A)*%
X134966250Y-74081250D03*
%TD*%
%TO.P,D19,1,K*%
%TO.N,Net-(D16-K)*%
X168146250Y-102691250D03*
%TO.P,D19,2,A*%
%TO.N,Net-(D19-A)*%
X160526250Y-102691250D03*
%TD*%
D11*
%TO.P,Thing5,1,K*%
%TO.N,Net-(D5-A)*%
X175435800Y-51550000D03*
D12*
%TO.P,Thing5,2,A*%
%TO.N,Net-(H10-Pin_1)*%
X183055800Y-51550000D03*
%TD*%
D10*
%TO.P,H8,1,Pin_1*%
%TO.N,Net-(H8-Pin_1)*%
X155816250Y-39951250D03*
%TD*%
D13*
%TO.P,D20,1,K*%
%TO.N,Net-(D16-K)*%
X182810000Y-102090000D03*
%TO.P,D20,2,A*%
%TO.N,Net-(D20-A)*%
X175190000Y-102090000D03*
%TD*%
%TO.P,D10,1,K*%
%TO.N,Net-(D10-K)*%
X182810000Y-73480000D03*
%TO.P,D10,2,A*%
%TO.N,Net-(D10-A)*%
X175190000Y-73480000D03*
%TD*%
D11*
%TO.P,Thing14,1,K*%
%TO.N,Net-(D14-A)*%
X160566250Y-81571250D03*
D12*
%TO.P,Thing14,2,A*%
%TO.N,Net-(H9-Pin_1)*%
X168186250Y-81571250D03*
%TD*%
D11*
%TO.P,Thing16,1,K*%
%TO.N,Net-(D16-A)*%
X120646250Y-95101250D03*
D12*
%TO.P,Thing16,2,A*%
%TO.N,Net-(H6-Pin_1)*%
X128266250Y-95101250D03*
%TD*%
D13*
%TO.P,D14,1,K*%
%TO.N,Net-(D11-K)*%
X166486250Y-87971250D03*
%TO.P,D14,2,A*%
%TO.N,Net-(D14-A)*%
X158866250Y-87971250D03*
%TD*%
D11*
%TO.P,Thing18,1,K*%
%TO.N,Net-(D18-A)*%
X147206250Y-95101250D03*
D12*
%TO.P,Thing18,2,A*%
%TO.N,Net-(H8-Pin_1)*%
X154826250Y-95101250D03*
%TD*%
D13*
%TO.P,D13,1,K*%
%TO.N,Net-(D11-K)*%
X154216250Y-87971250D03*
%TO.P,D13,2,A*%
%TO.N,Net-(D13-A)*%
X146596250Y-87971250D03*
%TD*%
D11*
%TO.P,Thing8,1,K*%
%TO.N,Net-(D8-A)*%
X148196250Y-67401250D03*
D12*
%TO.P,Thing8,2,A*%
%TO.N,Net-(H8-Pin_1)*%
X155816250Y-67401250D03*
%TD*%
D11*
%TO.P,Thing20,1,K*%
%TO.N,Net-(D20-A)*%
X175435800Y-94500000D03*
D12*
%TO.P,Thing20,2,A*%
%TO.N,Net-(H10-Pin_1)*%
X183055800Y-94500000D03*
%TD*%
D10*
%TO.P,H7,1,Pin_1*%
%TO.N,Net-(H7-Pin_1)*%
X142240000Y-39951250D03*
%TD*%
D11*
%TO.P,Thing1,1,K*%
%TO.N,Net-(D1-A)*%
X121256250Y-52151250D03*
D12*
%TO.P,Thing1,2,A*%
%TO.N,Net-(H6-Pin_1)*%
X128876250Y-52151250D03*
%TD*%
D10*
%TO.P,H6,1,Pin_1*%
%TO.N,Net-(H6-Pin_1)*%
X128872500Y-39951250D03*
%TD*%
D11*
%TO.P,Thing19,1,K*%
%TO.N,Net-(D19-A)*%
X161076250Y-95101250D03*
D12*
%TO.P,Thing19,2,A*%
%TO.N,Net-(H9-Pin_1)*%
X168696250Y-95101250D03*
%TD*%
D13*
%TO.P,D21,1,K*%
%TO.N,Net-(D21-K)*%
X128570000Y-116840000D03*
%TO.P,D21,2,A*%
%TO.N,Net-(D21-A)*%
X120950000Y-116840000D03*
%TD*%
%TO.P,D12,1,K*%
%TO.N,Net-(D11-K)*%
X141646250Y-87971250D03*
%TO.P,D12,2,A*%
%TO.N,Net-(D12-A)*%
X134026250Y-87971250D03*
%TD*%
%TO.P,D1,1,K*%
%TO.N,Net-(D1-K)*%
X128946250Y-60101250D03*
%TO.P,D1,2,A*%
%TO.N,Net-(D1-A)*%
X121326250Y-60101250D03*
%TD*%
D11*
%TO.P,Thing4,1,K*%
%TO.N,Net-(D4-A)*%
X159516250Y-52151250D03*
D12*
%TO.P,Thing4,2,A*%
%TO.N,Net-(H9-Pin_1)*%
X167136250Y-52151250D03*
%TD*%
D11*
%TO.P,Thing17,1,K*%
%TO.N,Net-(D17-A)*%
X132816250Y-95101250D03*
D12*
%TO.P,Thing17,2,A*%
%TO.N,Net-(H7-Pin_1)*%
X140436250Y-95101250D03*
%TD*%
D11*
%TO.P,Thing24,1,K*%
%TO.N,Net-(D24-A)*%
X162106250Y-110791250D03*
D12*
%TO.P,Thing24,2,A*%
%TO.N,Net-(H9-Pin_1)*%
X169726250Y-110791250D03*
%TD*%
D13*
%TO.P,D9,1,K*%
%TO.N,Net-(D10-K)*%
X167786250Y-74081250D03*
%TO.P,D9,2,A*%
%TO.N,Net-(D9-A)*%
X160166250Y-74081250D03*
%TD*%
%TO.P,D24,1,K*%
%TO.N,Net-(D21-K)*%
X169820000Y-116840000D03*
%TO.P,D24,2,A*%
%TO.N,Net-(D24-A)*%
X162200000Y-116840000D03*
%TD*%
D11*
%TO.P,Thing13,1,K*%
%TO.N,Net-(D13-A)*%
X147376250Y-81571250D03*
D12*
%TO.P,Thing13,2,A*%
%TO.N,Net-(H8-Pin_1)*%
X154996250Y-81571250D03*
%TD*%
D13*
%TO.P,D11,1,K*%
%TO.N,Net-(D11-K)*%
X128096250Y-87971250D03*
%TO.P,D11,2,A*%
%TO.N,Net-(D11-A)*%
X120476250Y-87971250D03*
%TD*%
%TO.P,D17,1,K*%
%TO.N,Net-(D16-K)*%
X140626250Y-102691250D03*
%TO.P,D17,2,A*%
%TO.N,Net-(D17-A)*%
X133006250Y-102691250D03*
%TD*%
%TO.P,D8,1,K*%
%TO.N,Net-(D10-K)*%
X155310000Y-74250000D03*
%TO.P,D8,2,A*%
%TO.N,Net-(D8-A)*%
X147690000Y-74250000D03*
%TD*%
%TO.P,D16,1,K*%
%TO.N,Net-(D16-K)*%
X128756250Y-102691250D03*
%TO.P,D16,2,A*%
%TO.N,Net-(D16-A)*%
X121136250Y-102691250D03*
%TD*%
%TO.P,D3,1,K*%
%TO.N,Net-(D1-K)*%
X154696250Y-60101250D03*
%TO.P,D3,2,A*%
%TO.N,Net-(D3-A)*%
X147076250Y-60101250D03*
%TD*%
%TO.P,D23,1,K*%
%TO.N,Net-(D21-K)*%
X154770000Y-116840000D03*
%TO.P,D23,2,A*%
%TO.N,Net-(D23-A)*%
X147150000Y-116840000D03*
%TD*%
D11*
%TO.P,Thing11,1,K*%
%TO.N,Net-(D11-A)*%
X120546250Y-81571250D03*
D12*
%TO.P,Thing11,2,A*%
%TO.N,Net-(H6-Pin_1)*%
X128166250Y-81571250D03*
%TD*%
D13*
%TO.P,D5,1,K*%
%TO.N,Net-(D1-K)*%
X182810000Y-59500000D03*
%TO.P,D5,2,A*%
%TO.N,Net-(D5-A)*%
X175190000Y-59500000D03*
%TD*%
D11*
%TO.P,Thing12,1,K*%
%TO.N,Net-(D12-A)*%
X134116250Y-81571250D03*
D12*
%TO.P,Thing12,2,A*%
%TO.N,Net-(H7-Pin_1)*%
X141736250Y-81571250D03*
%TD*%
D11*
%TO.P,Thing10,1,K*%
%TO.N,Net-(D10-A)*%
X175435800Y-66800000D03*
D12*
%TO.P,Thing10,2,A*%
%TO.N,Net-(H10-Pin_1)*%
X183055800Y-66800000D03*
%TD*%
D11*
%TO.P,Thing6,1,K*%
%TO.N,Net-(D6-A)*%
X121106250Y-67401250D03*
D12*
%TO.P,Thing6,2,A*%
%TO.N,Net-(H6-Pin_1)*%
X128726250Y-67401250D03*
%TD*%
D13*
%TO.P,D22,1,K*%
%TO.N,Net-(D21-K)*%
X140970000Y-116840000D03*
%TO.P,D22,2,A*%
%TO.N,Net-(D22-A)*%
X133350000Y-116840000D03*
%TD*%
D14*
%TO.N,Net-(D16-K)*%
X108656250Y-101600000D02*
X113806250Y-106750000D01*
%TO.N,Net-(D10-K)*%
X108656250Y-74021250D02*
X112135000Y-77500000D01*
%TO.N,Net-(D11-K)*%
X108656250Y-87051250D02*
X113355000Y-91750000D01*
%TO.N,Net-(D1-K)*%
X108656250Y-60391250D02*
X113891250Y-60391250D01*
X128946250Y-62946250D02*
X129250000Y-63250000D01*
X128946250Y-60101250D02*
X128946250Y-62946250D01*
X129250000Y-63250000D02*
X141000000Y-63250000D01*
%TO.N,Net-(D21-K)*%
X128570000Y-116840000D02*
X128570000Y-115570000D01*
X127500000Y-114500000D02*
X140250000Y-114500000D01*
X128570000Y-115570000D02*
X127500000Y-114500000D01*
X140970000Y-115220000D02*
X140250000Y-114500000D01*
X140970000Y-116840000D02*
X140970000Y-115220000D01*
X140250000Y-114500000D02*
X153500000Y-114500000D01*
X154770000Y-115770000D02*
X153500000Y-114500000D01*
X154770000Y-116840000D02*
X154770000Y-115770000D01*
X153500000Y-114500000D02*
X169000000Y-114500000D01*
X169820000Y-115320000D02*
X169000000Y-114500000D01*
X169820000Y-116840000D02*
X169820000Y-115320000D01*
X169000000Y-114500000D02*
X181071250Y-114500000D01*
X181071250Y-114500000D02*
X182810000Y-116238750D01*
X116750000Y-114500000D02*
X127500000Y-114500000D01*
X115680000Y-115570000D02*
X116750000Y-114500000D01*
X108656250Y-115570000D02*
X115680000Y-115570000D01*
%TO.N,Net-(D16-K)*%
X128756250Y-104493750D02*
X126500000Y-106750000D01*
X128756250Y-102691250D02*
X128756250Y-104493750D01*
X126500000Y-106750000D02*
X139500000Y-106750000D01*
X140626250Y-105623750D02*
X139500000Y-106750000D01*
X139500000Y-106750000D02*
X155250000Y-106750000D01*
X140626250Y-102691250D02*
X140626250Y-105623750D01*
X154616250Y-106116250D02*
X155250000Y-106750000D01*
X113806250Y-106750000D02*
X126500000Y-106750000D01*
X154616250Y-102691250D02*
X154616250Y-106116250D01*
X168146250Y-105603750D02*
X167000000Y-106750000D01*
X167000000Y-106750000D02*
X178150000Y-106750000D01*
X168146250Y-102691250D02*
X168146250Y-105603750D01*
X155250000Y-106750000D02*
X167000000Y-106750000D01*
X178150000Y-106750000D02*
X182810000Y-102090000D01*
%TO.N,Net-(D11-K)*%
X128096250Y-90653750D02*
X127000000Y-91750000D01*
X128096250Y-87971250D02*
X128096250Y-90653750D01*
X113355000Y-91750000D02*
X127000000Y-91750000D01*
X127000000Y-91750000D02*
X140750000Y-91750000D01*
X140750000Y-91750000D02*
X151500000Y-91750000D01*
X141646250Y-87971250D02*
X141646250Y-90853750D01*
X141646250Y-90853750D02*
X140750000Y-91750000D01*
X154216250Y-89033750D02*
X151500000Y-91750000D01*
X154216250Y-87971250D02*
X154216250Y-89033750D01*
X151500000Y-91750000D02*
X163250000Y-91750000D01*
X166486250Y-88513750D02*
X163250000Y-91750000D01*
X163250000Y-91750000D02*
X178430000Y-91750000D01*
X166486250Y-87971250D02*
X166486250Y-88513750D01*
X178430000Y-91750000D02*
X182810000Y-87370000D01*
%TO.N,Net-(D10-K)*%
X128146250Y-76603750D02*
X127250000Y-77500000D01*
X128146250Y-74081250D02*
X128146250Y-76603750D01*
X127250000Y-77500000D02*
X140500000Y-77500000D01*
X142586250Y-74081250D02*
X142586250Y-75413750D01*
X142586250Y-75413750D02*
X140500000Y-77500000D01*
X140500000Y-77500000D02*
X155750000Y-77500000D01*
X155310000Y-77060000D02*
X155750000Y-77500000D01*
X155310000Y-74250000D02*
X155310000Y-77060000D01*
X155750000Y-77500000D02*
X167250000Y-77500000D01*
X167786250Y-76963750D02*
X167250000Y-77500000D01*
X167786250Y-74081250D02*
X167786250Y-76963750D01*
X112135000Y-77500000D02*
X127250000Y-77500000D01*
X178790000Y-77500000D02*
X182810000Y-73480000D01*
X167250000Y-77500000D02*
X178790000Y-77500000D01*
%TO.N,Net-(D1-K)*%
X152750000Y-63250000D02*
X166750000Y-63250000D01*
X140946250Y-60101250D02*
X140946250Y-63196250D01*
X154696250Y-61303750D02*
X152750000Y-63250000D01*
X182250000Y-63250000D02*
X182810000Y-62690000D01*
X166750000Y-63250000D02*
X182250000Y-63250000D01*
X167156250Y-62843750D02*
X166750000Y-63250000D01*
X141000000Y-63250000D02*
X152750000Y-63250000D01*
X154696250Y-60101250D02*
X154696250Y-61303750D01*
X140946250Y-63196250D02*
X141000000Y-63250000D01*
X113891250Y-60391250D02*
X116750000Y-63250000D01*
X116750000Y-63250000D02*
X129250000Y-63250000D01*
X167156250Y-60101250D02*
X167156250Y-62843750D01*
X182810000Y-62690000D02*
X182810000Y-59500000D01*
%TD*%
M02*
