%TF.GenerationSoftware,KiCad,Pcbnew,9.0.1*%
%TF.CreationDate,2025-07-02T23:46:09-04:00*%
%TF.ProjectId,5x5,3578352e-6b69-4636-9164-5f7063625858,rev?*%
%TF.SameCoordinates,Original*%
%TF.FileFunction,Legend,Bot*%
%TF.FilePolarity,Positive*%
%FSLAX46Y46*%
G04 Gerber Fmt 4.6, Leading zero omitted, Abs format (unit mm)*
G04 Created by KiCad (PCBNEW 9.0.1) date 2025-07-02 23:46:09*
%MOMM*%
%LPD*%
G01*
G04 APERTURE LIST*
%ADD10C,0.000000*%
G04 APERTURE END LIST*
D10*
%TO.C,G\u002A\u002A\u002A*%
G36*
X170522174Y-112941732D02*
G01*
X170484891Y-112980080D01*
X170420749Y-113023394D01*
X170400347Y-113023893D01*
X170430277Y-112978965D01*
X170459995Y-112950863D01*
X170513394Y-112927528D01*
X170522174Y-112941732D01*
G37*
G36*
X170656399Y-112824009D02*
G01*
X170658001Y-112856345D01*
X170650841Y-112865813D01*
X170601314Y-112891379D01*
X170589533Y-112888680D01*
X170587932Y-112856345D01*
X170595091Y-112846877D01*
X170644619Y-112821310D01*
X170656399Y-112824009D01*
G37*
G36*
X165840759Y-79819927D02*
G01*
X165834839Y-79835527D01*
X165788208Y-79853862D01*
X165764264Y-79852340D01*
X165735656Y-79840093D01*
X165742110Y-79831025D01*
X165788208Y-79806158D01*
X165815079Y-79800651D01*
X165840759Y-79819927D01*
G37*
G36*
X127758277Y-98352937D02*
G01*
X127758277Y-104484839D01*
X127188966Y-104475213D01*
X126619656Y-104465586D01*
X126610799Y-98343310D01*
X126601942Y-92221034D01*
X127180110Y-92221034D01*
X127758277Y-92221034D01*
X127758277Y-98352937D01*
G37*
G36*
X165995468Y-79691251D02*
G01*
X165976879Y-79720203D01*
X165918758Y-79748759D01*
X165893398Y-79747421D01*
X165878713Y-79738845D01*
X165900033Y-79723273D01*
X165955423Y-79681338D01*
X165976752Y-79665444D01*
X166004880Y-79653412D01*
X165995468Y-79691251D01*
G37*
G36*
X177952276Y-102622442D02*
G01*
X178035964Y-102649874D01*
X178067794Y-102688456D01*
X178067792Y-102688847D01*
X178061949Y-102743482D01*
X178046403Y-102851420D01*
X178023494Y-102997214D01*
X177995560Y-103165418D01*
X177832945Y-103960857D01*
X177583410Y-104856524D01*
X177266914Y-105736348D01*
X176884737Y-106597184D01*
X176438157Y-107435887D01*
X175928452Y-108249310D01*
X175643539Y-108654764D01*
X175298301Y-109102689D01*
X174927479Y-109536398D01*
X174512492Y-109978589D01*
X174339543Y-110153038D01*
X174027433Y-110451252D01*
X173723199Y-110717089D01*
X173406717Y-110967729D01*
X173057863Y-111220350D01*
X172932954Y-111306997D01*
X172822132Y-111382860D01*
X172745073Y-111434443D01*
X172713568Y-111453751D01*
X172718515Y-111447425D01*
X172762741Y-111401793D01*
X172846795Y-111317873D01*
X172963760Y-111202507D01*
X173106718Y-111062535D01*
X173268752Y-110904795D01*
X173282086Y-110891836D01*
X173873045Y-110287706D01*
X174407314Y-109677724D01*
X174897237Y-109045995D01*
X175355154Y-108376626D01*
X175793410Y-107653724D01*
X175917968Y-107430647D01*
X176243320Y-106790776D01*
X176541953Y-106118913D01*
X176809443Y-105427975D01*
X177041364Y-104730881D01*
X177233291Y-104040550D01*
X177380797Y-103369901D01*
X177479459Y-102731851D01*
X177491989Y-102683477D01*
X177536002Y-102644755D01*
X177629863Y-102620966D01*
X177700139Y-102611941D01*
X177834433Y-102608888D01*
X177952276Y-102622442D01*
G37*
G36*
X161664647Y-82737957D02*
G01*
X161629341Y-82790864D01*
X161556395Y-82879643D01*
X161452716Y-82996027D01*
X161325209Y-83131747D01*
X160784692Y-83727229D01*
X160207697Y-84452346D01*
X159695432Y-85203476D01*
X159247233Y-85981905D01*
X158862433Y-86788920D01*
X158540366Y-87625805D01*
X158280366Y-88493847D01*
X158081768Y-89394332D01*
X158074005Y-89437177D01*
X158042283Y-89623479D01*
X158016569Y-89792317D01*
X157999330Y-89926587D01*
X157993035Y-90009187D01*
X157992706Y-90025854D01*
X157978878Y-90121027D01*
X157950994Y-90182028D01*
X157915432Y-90199394D01*
X157824085Y-90217177D01*
X157706420Y-90224069D01*
X157617785Y-90222778D01*
X157540787Y-90213330D01*
X157502161Y-90188876D01*
X157483461Y-90142683D01*
X157480185Y-90108167D01*
X157485410Y-90002331D01*
X157502531Y-89848020D01*
X157529563Y-89657807D01*
X157564521Y-89444263D01*
X157605420Y-89219963D01*
X157650276Y-88997478D01*
X157697104Y-88789381D01*
X157851857Y-88215875D01*
X158131258Y-87403409D01*
X158475575Y-86609220D01*
X158882112Y-85838760D01*
X159348176Y-85097479D01*
X159871074Y-84390828D01*
X159903232Y-84350959D01*
X160092415Y-84126602D01*
X160296601Y-83899363D01*
X160509068Y-83675486D01*
X160723093Y-83461210D01*
X160931954Y-83262778D01*
X161128930Y-83086429D01*
X161307298Y-82938404D01*
X161460335Y-82824946D01*
X161581319Y-82752294D01*
X161663529Y-82726690D01*
X161664647Y-82737957D01*
G37*
G36*
X178897002Y-102603364D02*
G01*
X178985129Y-102629722D01*
X179019528Y-102653009D01*
X179040723Y-102692530D01*
X179044020Y-102763061D01*
X179033023Y-102883722D01*
X179030860Y-102902574D01*
X178992840Y-103156519D01*
X178934667Y-103457326D01*
X178860620Y-103787783D01*
X178774980Y-104130679D01*
X178682028Y-104468801D01*
X178586044Y-104784938D01*
X178491309Y-105061880D01*
X178389197Y-105329619D01*
X178054603Y-106095621D01*
X177669224Y-106824143D01*
X177225571Y-107529781D01*
X177222582Y-107534176D01*
X176968050Y-107890691D01*
X176690896Y-108247816D01*
X176399295Y-108596759D01*
X176101424Y-108928730D01*
X175805458Y-109234938D01*
X175519574Y-109506592D01*
X175251947Y-109734903D01*
X175010754Y-109911080D01*
X174998042Y-109919371D01*
X174871694Y-109998996D01*
X174792377Y-110041507D01*
X174751261Y-110050802D01*
X174739518Y-110030776D01*
X174760877Y-110001928D01*
X174824007Y-109930850D01*
X174921235Y-109826137D01*
X175044840Y-109696101D01*
X175187099Y-109549052D01*
X175403965Y-109321549D01*
X176016001Y-108615966D01*
X176564419Y-107881422D01*
X177049753Y-107117026D01*
X177472536Y-106321889D01*
X177833303Y-105495119D01*
X178132588Y-104635826D01*
X178184726Y-104458477D01*
X178268080Y-104147279D01*
X178348303Y-103817068D01*
X178420541Y-103489183D01*
X178479937Y-103184963D01*
X178521639Y-102925746D01*
X178526698Y-102890815D01*
X178551002Y-102761984D01*
X178577991Y-102665377D01*
X178602702Y-102619730D01*
X178671029Y-102598957D01*
X178781406Y-102592824D01*
X178897002Y-102603364D01*
G37*
G36*
X163558223Y-81399989D02*
G01*
X163510230Y-81460503D01*
X163413384Y-81565574D01*
X163267199Y-81716606D01*
X163071186Y-81915000D01*
X163006058Y-81981046D01*
X162802163Y-82193136D01*
X162593741Y-82416865D01*
X162394513Y-82637140D01*
X162218197Y-82838871D01*
X162078512Y-83006965D01*
X162031437Y-83066236D01*
X161461265Y-83840048D01*
X160941927Y-84651654D01*
X160476618Y-85494305D01*
X160068536Y-86361254D01*
X159720880Y-87245754D01*
X159436846Y-88141055D01*
X159219632Y-89040410D01*
X159209343Y-89091711D01*
X159169901Y-89300662D01*
X159134908Y-89504245D01*
X159107845Y-89681425D01*
X159092187Y-89811169D01*
X159078115Y-89945751D01*
X159055487Y-90067218D01*
X159021804Y-90141508D01*
X158970530Y-90181528D01*
X158895127Y-90200181D01*
X158868575Y-90203176D01*
X158752702Y-90206492D01*
X158631959Y-90198828D01*
X158531291Y-90182569D01*
X158475643Y-90160098D01*
X158471502Y-90140567D01*
X158474305Y-90060979D01*
X158487161Y-89932824D01*
X158508299Y-89768595D01*
X158535944Y-89580782D01*
X158568324Y-89381875D01*
X158603666Y-89184367D01*
X158640196Y-89000747D01*
X158777010Y-88425529D01*
X159040428Y-87555514D01*
X159367419Y-86697385D01*
X159754079Y-85859354D01*
X160196503Y-85049631D01*
X160690787Y-84276429D01*
X161233027Y-83547957D01*
X161409833Y-83331910D01*
X161829312Y-82854240D01*
X162251596Y-82425181D01*
X162690647Y-82031043D01*
X163160423Y-81658138D01*
X163271422Y-81575447D01*
X163413964Y-81471761D01*
X163509603Y-81407021D01*
X163557852Y-81382630D01*
X163558223Y-81399989D01*
G37*
G36*
X111718180Y-96102937D02*
G01*
X112016794Y-96130305D01*
X112286137Y-96184104D01*
X112549725Y-96269554D01*
X112831078Y-96391878D01*
X112999332Y-96477059D01*
X113292182Y-96655711D01*
X113559943Y-96866340D01*
X113826063Y-97126253D01*
X114094828Y-97411952D01*
X114094828Y-96866010D01*
X114094828Y-96320069D01*
X114655380Y-96320069D01*
X115215932Y-96320069D01*
X115215932Y-100401586D01*
X115215932Y-104483103D01*
X114657035Y-104483103D01*
X114098139Y-104483103D01*
X114086406Y-101864276D01*
X114086099Y-101795423D01*
X114083916Y-101297595D01*
X114081809Y-100863898D01*
X114079372Y-100489070D01*
X114076200Y-100167851D01*
X114071886Y-99894980D01*
X114066027Y-99665197D01*
X114058214Y-99473240D01*
X114048044Y-99313849D01*
X114035109Y-99181763D01*
X114019005Y-99071721D01*
X113999326Y-98978462D01*
X113975665Y-98896727D01*
X113947618Y-98821252D01*
X113914778Y-98746779D01*
X113876740Y-98668046D01*
X113833098Y-98579793D01*
X113807885Y-98530031D01*
X113598365Y-98199777D01*
X113340335Y-97911285D01*
X113041807Y-97668541D01*
X112710789Y-97475531D01*
X112355289Y-97336239D01*
X111983319Y-97254652D01*
X111602886Y-97234754D01*
X111222001Y-97280531D01*
X111107413Y-97303959D01*
X111024020Y-97319512D01*
X110990987Y-97323594D01*
X110980295Y-97301304D01*
X110947399Y-97223613D01*
X110898684Y-97104248D01*
X110839405Y-96956540D01*
X110774822Y-96793819D01*
X110710191Y-96629415D01*
X110650770Y-96476660D01*
X110601817Y-96348882D01*
X110568590Y-96259414D01*
X110556346Y-96221585D01*
X110560932Y-96210128D01*
X110616978Y-96179793D01*
X110728050Y-96152107D01*
X110883132Y-96128522D01*
X111071208Y-96110490D01*
X111281261Y-96099464D01*
X111502277Y-96096895D01*
X111718180Y-96102937D01*
G37*
G36*
X166164403Y-80998653D02*
G01*
X166610716Y-81100816D01*
X167029274Y-81264844D01*
X167417454Y-81488893D01*
X167772630Y-81771117D01*
X168092177Y-82109674D01*
X168373469Y-82502719D01*
X168613882Y-82948408D01*
X168810790Y-83444896D01*
X168956598Y-83970898D01*
X169059395Y-84572826D01*
X169106212Y-85203238D01*
X169098445Y-85857021D01*
X169037489Y-86529060D01*
X168924739Y-87214241D01*
X168761590Y-87907451D01*
X168549436Y-88603575D01*
X168289674Y-89297500D01*
X167983698Y-89984112D01*
X167632903Y-90658296D01*
X167238684Y-91314939D01*
X166802437Y-91948927D01*
X166325556Y-92555145D01*
X166266043Y-92624109D01*
X166174205Y-92723190D01*
X166102596Y-92791295D01*
X166063070Y-92816621D01*
X166059637Y-92815912D01*
X166056412Y-92777890D01*
X166085015Y-92687138D01*
X166143264Y-92550894D01*
X166253479Y-92289404D01*
X166379241Y-91934111D01*
X166490284Y-91557893D01*
X166578071Y-91187517D01*
X166581067Y-91172936D01*
X166627577Y-90971045D01*
X166679401Y-90806055D01*
X166747905Y-90647059D01*
X166844454Y-90463150D01*
X166889420Y-90380745D01*
X167168977Y-89812000D01*
X167416453Y-89208607D01*
X167628976Y-88582196D01*
X167803675Y-87944397D01*
X167937679Y-87306841D01*
X168028116Y-86681158D01*
X168072114Y-86078978D01*
X168066804Y-85511931D01*
X168045665Y-85236705D01*
X167965207Y-84673465D01*
X167838570Y-84149112D01*
X167667867Y-83666301D01*
X167455209Y-83227688D01*
X167202707Y-82835926D01*
X166912473Y-82493670D01*
X166586619Y-82203575D01*
X166227256Y-81968295D01*
X165836497Y-81790485D01*
X165416452Y-81672799D01*
X164969233Y-81617892D01*
X164825274Y-81610755D01*
X164673046Y-81601315D01*
X164574777Y-81589197D01*
X164521066Y-81570456D01*
X164502512Y-81541152D01*
X164509712Y-81497341D01*
X164533266Y-81435081D01*
X164608984Y-81283172D01*
X164715869Y-81159496D01*
X164859183Y-81071419D01*
X165049472Y-81012612D01*
X165297283Y-80976750D01*
X165692963Y-80960198D01*
X166164403Y-80998653D01*
G37*
G36*
X170605449Y-99871219D02*
G01*
X170600855Y-99884224D01*
X170572913Y-99948718D01*
X170525241Y-100053799D01*
X170464374Y-100184932D01*
X170352849Y-100443966D01*
X170221590Y-100802868D01*
X170105444Y-101180021D01*
X170013852Y-101546883D01*
X169978640Y-101691148D01*
X169908984Y-101905697D01*
X169831653Y-102070875D01*
X169524140Y-102637537D01*
X169225761Y-103294535D01*
X168972538Y-103975621D01*
X168767010Y-104670856D01*
X168611714Y-105370302D01*
X168509186Y-106064017D01*
X168461965Y-106742063D01*
X168472589Y-107394499D01*
X168497728Y-107681822D01*
X168584682Y-108220971D01*
X168719693Y-108725697D01*
X168900509Y-109192036D01*
X169124875Y-109616018D01*
X169390537Y-109993678D01*
X169695241Y-110321048D01*
X170036733Y-110594161D01*
X170412759Y-110809051D01*
X170627426Y-110902308D01*
X170915090Y-110998686D01*
X171215262Y-111062782D01*
X171555527Y-111101659D01*
X171652435Y-111109917D01*
X171785758Y-111124105D01*
X171881298Y-111137905D01*
X171922986Y-111149239D01*
X171924376Y-111179855D01*
X171896163Y-111253621D01*
X171844960Y-111349752D01*
X171781684Y-111449844D01*
X171717250Y-111535493D01*
X171662575Y-111588295D01*
X171635258Y-111604092D01*
X171533722Y-111649218D01*
X171416546Y-111688953D01*
X171396941Y-111693983D01*
X171255520Y-111714401D01*
X171066195Y-111724195D01*
X170846863Y-111724033D01*
X170615419Y-111714580D01*
X170389760Y-111696506D01*
X170187782Y-111670476D01*
X170027380Y-111637158D01*
X169743568Y-111546462D01*
X169320420Y-111356261D01*
X168938766Y-111111159D01*
X168598205Y-110810653D01*
X168298339Y-110454243D01*
X168038769Y-110041426D01*
X167819095Y-109571700D01*
X167638917Y-109044564D01*
X167497837Y-108459517D01*
X167483419Y-108375628D01*
X167457410Y-108143629D01*
X167440215Y-107864194D01*
X167431719Y-107552594D01*
X167431810Y-107224098D01*
X167440374Y-106893977D01*
X167457297Y-106577499D01*
X167482467Y-106289934D01*
X167515769Y-106046553D01*
X167529835Y-105966530D01*
X167727291Y-105052115D01*
X167986891Y-104169870D01*
X168309009Y-103318896D01*
X168694023Y-102498295D01*
X169142310Y-101707169D01*
X169654245Y-100944621D01*
X169749807Y-100815126D01*
X169903384Y-100614597D01*
X170055141Y-100424673D01*
X170199329Y-100251841D01*
X170330197Y-100102593D01*
X170441994Y-99983417D01*
X170528968Y-99900803D01*
X170585370Y-99861241D01*
X170605449Y-99871219D01*
G37*
G36*
X142658604Y-96140119D02*
G01*
X143140413Y-96258168D01*
X143605602Y-96441071D01*
X143872594Y-96579927D01*
X144312443Y-96867970D01*
X144708991Y-97205898D01*
X145059494Y-97588395D01*
X145361209Y-98010145D01*
X145611391Y-98465831D01*
X145807297Y-98950138D01*
X145946182Y-99457748D01*
X146025304Y-99983346D01*
X146041918Y-100521616D01*
X145993281Y-101067241D01*
X145984519Y-101123416D01*
X145865216Y-101658229D01*
X145685357Y-102159054D01*
X145443500Y-102628735D01*
X145138204Y-103070118D01*
X144768028Y-103486048D01*
X144659751Y-103591105D01*
X144251377Y-103930631D01*
X143816224Y-104208894D01*
X143358363Y-104423891D01*
X142881865Y-104573616D01*
X142390802Y-104656066D01*
X142364036Y-104658661D01*
X142199524Y-104674289D01*
X142079246Y-104683542D01*
X141980695Y-104686466D01*
X141881362Y-104683110D01*
X141758741Y-104673520D01*
X141590325Y-104657744D01*
X141451054Y-104642101D01*
X140942791Y-104541462D01*
X140458093Y-104375068D01*
X139998287Y-104143556D01*
X139564698Y-103847565D01*
X139158651Y-103487732D01*
X139023283Y-103349788D01*
X138873313Y-103186805D01*
X138776125Y-103065768D01*
X138732278Y-102987392D01*
X138742328Y-102952395D01*
X138756511Y-102945849D01*
X138824722Y-102910610D01*
X138936845Y-102850845D01*
X139081345Y-102772727D01*
X139246687Y-102682432D01*
X139716753Y-102424521D01*
X139947377Y-102657583D01*
X140175455Y-102865553D01*
X140540914Y-103125040D01*
X140937096Y-103328991D01*
X141351675Y-103470271D01*
X141502679Y-103498205D01*
X141733267Y-103517562D01*
X141990925Y-103520573D01*
X142253069Y-103507795D01*
X142497117Y-103479781D01*
X142700483Y-103437089D01*
X143044322Y-103313392D01*
X143423261Y-103111755D01*
X143771213Y-102854930D01*
X144082667Y-102549244D01*
X144352115Y-102201026D01*
X144574045Y-101816605D01*
X144742950Y-101402307D01*
X144853318Y-100964462D01*
X144862075Y-100908076D01*
X144881393Y-100695229D01*
X144888632Y-100447186D01*
X144884061Y-100189536D01*
X144867949Y-99947868D01*
X144840563Y-99747771D01*
X144794850Y-99545545D01*
X144652328Y-99119389D01*
X144456268Y-98722307D01*
X144212039Y-98359893D01*
X143925008Y-98037740D01*
X143600544Y-97761441D01*
X143244016Y-97536590D01*
X142860792Y-97368779D01*
X142456240Y-97263603D01*
X142424587Y-97258474D01*
X142191946Y-97237482D01*
X141927433Y-97236270D01*
X141656181Y-97253382D01*
X141403325Y-97287361D01*
X141194001Y-97336750D01*
X140989977Y-97409371D01*
X140587217Y-97603714D01*
X140218914Y-97851830D01*
X139896977Y-98146286D01*
X139724988Y-98330156D01*
X139224706Y-98069595D01*
X139112483Y-98010524D01*
X138958339Y-97927098D01*
X138835290Y-97857668D01*
X138753779Y-97808179D01*
X138724247Y-97784577D01*
X138728382Y-97771295D01*
X138769164Y-97709401D01*
X138845391Y-97614285D01*
X138946990Y-97497341D01*
X139063888Y-97369967D01*
X139186012Y-97243558D01*
X139303288Y-97129510D01*
X139407500Y-97035784D01*
X139810009Y-96731158D01*
X140244808Y-96483560D01*
X140704910Y-96294108D01*
X141183327Y-96163919D01*
X141673074Y-96094113D01*
X142167162Y-96085807D01*
X142658604Y-96140119D01*
G37*
G36*
X137831238Y-100594276D02*
G01*
X137767524Y-101094972D01*
X137636595Y-101635795D01*
X137443756Y-102144035D01*
X137189187Y-102619300D01*
X136873072Y-103061196D01*
X136495592Y-103469332D01*
X136411758Y-103547774D01*
X135980369Y-103896244D01*
X135518365Y-104181690D01*
X135025890Y-104404046D01*
X134503085Y-104563245D01*
X133950093Y-104659221D01*
X133863261Y-104667932D01*
X133411220Y-104678342D01*
X132963634Y-104632575D01*
X132532697Y-104533283D01*
X132130605Y-104383122D01*
X131769550Y-104184743D01*
X131592794Y-104056708D01*
X131289997Y-103780030D01*
X130996873Y-103436748D01*
X130711992Y-103025295D01*
X130695608Y-103009622D01*
X130682995Y-103029847D01*
X130674836Y-103096462D01*
X130670211Y-103217355D01*
X130668199Y-103400411D01*
X130666303Y-103560461D01*
X130660842Y-103781648D01*
X130652877Y-103992204D01*
X130643375Y-104162411D01*
X130620612Y-104483103D01*
X130065306Y-104483103D01*
X129510001Y-104483103D01*
X129510001Y-100401586D01*
X129510001Y-100387416D01*
X130736208Y-100387416D01*
X130752696Y-100765544D01*
X130822349Y-101235080D01*
X130943774Y-101673290D01*
X131114006Y-102076065D01*
X131330080Y-102439294D01*
X131589034Y-102758867D01*
X131887902Y-103030675D01*
X132223720Y-103250606D01*
X132593524Y-103414551D01*
X132994350Y-103518400D01*
X133000233Y-103519420D01*
X133464195Y-103565699D01*
X133917986Y-103543061D01*
X134359556Y-103451763D01*
X134786854Y-103292065D01*
X135161412Y-103091488D01*
X135537439Y-102819584D01*
X135865742Y-102497425D01*
X136149310Y-102122447D01*
X136211618Y-102023648D01*
X136412160Y-101641089D01*
X136550723Y-101248937D01*
X136631087Y-100834246D01*
X136657035Y-100384069D01*
X136655735Y-100292547D01*
X136645235Y-100085047D01*
X136626351Y-99885807D01*
X136601678Y-99725695D01*
X136562916Y-99560032D01*
X136415906Y-99131374D01*
X136210982Y-98731605D01*
X135953770Y-98366254D01*
X135649898Y-98040846D01*
X135304991Y-97760907D01*
X134924675Y-97531964D01*
X134514577Y-97359543D01*
X134080324Y-97249170D01*
X133973430Y-97232229D01*
X133521496Y-97199346D01*
X133091919Y-97230349D01*
X132687928Y-97322207D01*
X132312753Y-97471891D01*
X131969622Y-97676369D01*
X131661765Y-97932612D01*
X131392411Y-98237588D01*
X131164789Y-98588268D01*
X130982128Y-98981622D01*
X130847659Y-99414617D01*
X130764609Y-99884226D01*
X130736208Y-100387416D01*
X129510001Y-100387416D01*
X129510001Y-96320069D01*
X130075825Y-96320069D01*
X130641649Y-96320069D01*
X130619595Y-97064552D01*
X130617453Y-97138435D01*
X130611651Y-97371586D01*
X130609441Y-97543084D01*
X130611028Y-97659504D01*
X130616614Y-97727421D01*
X130626404Y-97753407D01*
X130640599Y-97744037D01*
X130830146Y-97477674D01*
X131167480Y-97087705D01*
X131533983Y-96761103D01*
X131929089Y-96498168D01*
X132352231Y-96299198D01*
X132802843Y-96164491D01*
X133280357Y-96094346D01*
X133784208Y-96089060D01*
X133910352Y-96097345D01*
X134108301Y-96115641D01*
X134291517Y-96138184D01*
X134432346Y-96161867D01*
X134610610Y-96203191D01*
X135128823Y-96369696D01*
X135614555Y-96596782D01*
X136064244Y-96881621D01*
X136474327Y-97221385D01*
X136841240Y-97613248D01*
X137161422Y-98054381D01*
X137431309Y-98541957D01*
X137576095Y-98891681D01*
X137704260Y-99316397D01*
X137792145Y-99755281D01*
X137835791Y-100188014D01*
X137833594Y-100384069D01*
X137831238Y-100594276D01*
G37*
G36*
X175134105Y-82417405D02*
G01*
X175191481Y-82517551D01*
X175279638Y-82684069D01*
X175382659Y-82888060D01*
X175493526Y-83114920D01*
X175605218Y-83350044D01*
X175710718Y-83578830D01*
X175803005Y-83786674D01*
X175875060Y-83958972D01*
X175931683Y-84104796D01*
X176002940Y-84313109D01*
X176045479Y-84492600D01*
X176060351Y-84662237D01*
X176048608Y-84840991D01*
X176011299Y-85047830D01*
X175949477Y-85301724D01*
X175923482Y-85399324D01*
X175831871Y-85718827D01*
X175720582Y-86079478D01*
X175595461Y-86463973D01*
X175462355Y-86855006D01*
X175327111Y-87235271D01*
X175195574Y-87587463D01*
X175073593Y-87894276D01*
X174855647Y-88399185D01*
X174475221Y-89202005D01*
X174055463Y-90004971D01*
X173608466Y-90785334D01*
X173146319Y-91520345D01*
X173143800Y-91524156D01*
X172567932Y-92356787D01*
X171983906Y-93123555D01*
X171387889Y-93828518D01*
X170776045Y-94475732D01*
X170144543Y-95069254D01*
X169489546Y-95613139D01*
X168807223Y-96111445D01*
X168532996Y-96298992D01*
X168842257Y-96415490D01*
X168914556Y-96442701D01*
X169046922Y-96492392D01*
X169149034Y-96530558D01*
X169203239Y-96550592D01*
X169217584Y-96559292D01*
X169206430Y-96590449D01*
X169133170Y-96641667D01*
X168797215Y-96850323D01*
X168135048Y-97312717D01*
X167486353Y-97833418D01*
X166861190Y-98404621D01*
X166674974Y-98588377D01*
X166139470Y-99149243D01*
X165644245Y-99721895D01*
X165173199Y-100325608D01*
X164710233Y-100979655D01*
X164522480Y-101261261D01*
X163930953Y-102214608D01*
X163405920Y-103171790D01*
X162944704Y-104138732D01*
X162544625Y-105121359D01*
X162203005Y-106125594D01*
X161917166Y-107157362D01*
X161881648Y-107302776D01*
X161795687Y-107673832D01*
X161723146Y-108022283D01*
X161661605Y-108363572D01*
X161608643Y-108713144D01*
X161561840Y-109086443D01*
X161518777Y-109498913D01*
X161477032Y-109966000D01*
X161453528Y-110246276D01*
X161199149Y-109738276D01*
X161183685Y-109707215D01*
X161070962Y-109472535D01*
X160950654Y-109210257D01*
X160836215Y-108950223D01*
X160741098Y-108722276D01*
X160675762Y-108557218D01*
X160614162Y-108391994D01*
X160572498Y-108261502D01*
X160546302Y-108149205D01*
X160531106Y-108038567D01*
X160522442Y-107913052D01*
X160518549Y-107812332D01*
X160519758Y-107701195D01*
X160530674Y-107594724D01*
X160554202Y-107475065D01*
X160593246Y-107324367D01*
X160650713Y-107124776D01*
X160763884Y-106752123D01*
X161165014Y-105586720D01*
X161628830Y-104449996D01*
X162153982Y-103344652D01*
X162739122Y-102273392D01*
X163382902Y-101238917D01*
X164083974Y-100243931D01*
X164584342Y-99602441D01*
X165195979Y-98887551D01*
X165820806Y-98230199D01*
X166455648Y-97633517D01*
X167097328Y-97100636D01*
X167742673Y-96634691D01*
X167750673Y-96629352D01*
X167919099Y-96517191D01*
X168030957Y-96437035D01*
X168086173Y-96379805D01*
X168084674Y-96336420D01*
X168026387Y-96297801D01*
X167911240Y-96254868D01*
X167739158Y-96198541D01*
X167678808Y-96178373D01*
X167562706Y-96137589D01*
X167484606Y-96107266D01*
X167458882Y-96092824D01*
X167476791Y-96080273D01*
X167544732Y-96034248D01*
X167653926Y-95960882D01*
X167794523Y-95866787D01*
X167956676Y-95758577D01*
X168018329Y-95717148D01*
X168225070Y-95574339D01*
X168438422Y-95422049D01*
X168636521Y-95276046D01*
X168797503Y-95152102D01*
X168850145Y-95109370D01*
X169050541Y-94936347D01*
X169282962Y-94722985D01*
X169537351Y-94479485D01*
X169803652Y-94216046D01*
X170071810Y-93942868D01*
X170331769Y-93670151D01*
X170573472Y-93408093D01*
X170786864Y-93166896D01*
X170961889Y-92956759D01*
X170986972Y-92925239D01*
X171664258Y-92019364D01*
X172286846Y-91077658D01*
X172852553Y-90104745D01*
X173359194Y-89105247D01*
X173804586Y-88083787D01*
X174186545Y-87044987D01*
X174502889Y-85993471D01*
X174751434Y-84933862D01*
X174812230Y-84616493D01*
X174887503Y-84160379D01*
X174948680Y-83696479D01*
X174998382Y-83204124D01*
X175039227Y-82662646D01*
X175062778Y-82300810D01*
X175134105Y-82417405D01*
G37*
G36*
X125187393Y-100576759D02*
G01*
X125176578Y-100740429D01*
X125122291Y-101168469D01*
X125027884Y-101568380D01*
X124887247Y-101962419D01*
X124694269Y-102372842D01*
X124437345Y-102801075D01*
X124111952Y-103216696D01*
X123737776Y-103589163D01*
X123320942Y-103914293D01*
X122867573Y-104187901D01*
X122383794Y-104405805D01*
X121875730Y-104563819D01*
X121349505Y-104657760D01*
X121201777Y-104669588D01*
X120938113Y-104674708D01*
X120656102Y-104665085D01*
X120384927Y-104641966D01*
X120153770Y-104606600D01*
X119962649Y-104560076D01*
X119559082Y-104411292D01*
X119175512Y-104201356D01*
X118820244Y-103936063D01*
X118501580Y-103621206D01*
X118227826Y-103262581D01*
X118187282Y-103201459D01*
X118117710Y-103100007D01*
X118068684Y-103033242D01*
X118048896Y-103013277D01*
X118048458Y-103016661D01*
X118045567Y-103070672D01*
X118041157Y-103181410D01*
X118035608Y-103338215D01*
X118029302Y-103530425D01*
X118022620Y-103747379D01*
X118001173Y-104465586D01*
X117431863Y-104475213D01*
X116862552Y-104484839D01*
X116862552Y-100402454D01*
X116862552Y-100384069D01*
X118113019Y-100384069D01*
X118113055Y-100439387D01*
X118114581Y-100659816D01*
X118119515Y-100830412D01*
X118129451Y-100967827D01*
X118145983Y-101088715D01*
X118170703Y-101209728D01*
X118205206Y-101347517D01*
X118229433Y-101432142D01*
X118299773Y-101639921D01*
X118384828Y-101857004D01*
X118471241Y-102048207D01*
X118527516Y-102156684D01*
X118767020Y-102532063D01*
X119047985Y-102851933D01*
X119369123Y-103115187D01*
X119729145Y-103320723D01*
X120126763Y-103467434D01*
X120358668Y-103516024D01*
X120636803Y-103547214D01*
X120930800Y-103558821D01*
X121214412Y-103549826D01*
X121461395Y-103519210D01*
X121662106Y-103473811D01*
X122089257Y-103326590D01*
X122490609Y-103118462D01*
X122859788Y-102854368D01*
X123190422Y-102539247D01*
X123476138Y-102178039D01*
X123710561Y-101775687D01*
X123746929Y-101698943D01*
X123908201Y-101264440D01*
X124003699Y-100814868D01*
X124033375Y-100357945D01*
X123997185Y-99901387D01*
X123895083Y-99452911D01*
X123727021Y-99020233D01*
X123547600Y-98688135D01*
X123319520Y-98368036D01*
X123041286Y-98069644D01*
X122763196Y-97827064D01*
X122455362Y-97616143D01*
X122122206Y-97449144D01*
X121742736Y-97313851D01*
X121687366Y-97297483D01*
X121559380Y-97263944D01*
X121438623Y-97241468D01*
X121305778Y-97227778D01*
X121141527Y-97220598D01*
X120926552Y-97217650D01*
X120883135Y-97217416D01*
X120675600Y-97218482D01*
X120516123Y-97224912D01*
X120386087Y-97238528D01*
X120266871Y-97261151D01*
X120139855Y-97294602D01*
X119793763Y-97419664D01*
X119423142Y-97620087D01*
X119092350Y-97876551D01*
X118803307Y-98186945D01*
X118557932Y-98549161D01*
X118358142Y-98961089D01*
X118205857Y-99420621D01*
X118196380Y-99456693D01*
X118164239Y-99588383D01*
X118141532Y-99707075D01*
X118126657Y-99829379D01*
X118118013Y-99971906D01*
X118114001Y-100151266D01*
X118113019Y-100384069D01*
X116862552Y-100384069D01*
X116862552Y-96320069D01*
X117431863Y-96320010D01*
X118001173Y-96319951D01*
X117982854Y-97046975D01*
X117981260Y-97111110D01*
X117976327Y-97322934D01*
X117972549Y-97506672D01*
X117970109Y-97651834D01*
X117969190Y-97747933D01*
X117969975Y-97784477D01*
X117978216Y-97777565D01*
X118018715Y-97726951D01*
X118084893Y-97637710D01*
X118167809Y-97521718D01*
X118190838Y-97489408D01*
X118498801Y-97119567D01*
X118851852Y-96797989D01*
X119242858Y-96529630D01*
X119664686Y-96319445D01*
X120110202Y-96172390D01*
X120213044Y-96150549D01*
X120453900Y-96118068D01*
X120731900Y-96098763D01*
X121026115Y-96092825D01*
X121315612Y-96100442D01*
X121579460Y-96121805D01*
X121796726Y-96157103D01*
X122259866Y-96284152D01*
X122733792Y-96470942D01*
X123170780Y-96710333D01*
X123580983Y-97007975D01*
X123974552Y-97369521D01*
X124177343Y-97589346D01*
X124507925Y-98023077D01*
X124774483Y-98484784D01*
X124976363Y-98972735D01*
X125112911Y-99485201D01*
X125183472Y-100020452D01*
X125185851Y-100357945D01*
X125187393Y-100576759D01*
G37*
G36*
X175290872Y-102627609D02*
G01*
X175424507Y-102634496D01*
X175520347Y-102645923D01*
X175562263Y-102660396D01*
X175566575Y-102683734D01*
X175560880Y-102771894D01*
X175540523Y-102913269D01*
X175507482Y-103098700D01*
X175463734Y-103319030D01*
X175411256Y-103565103D01*
X175352024Y-103827761D01*
X175288016Y-104097848D01*
X175221210Y-104366206D01*
X175153582Y-104623678D01*
X175087109Y-104861107D01*
X174995116Y-105162956D01*
X174785701Y-105776144D01*
X174540157Y-106416237D01*
X174265612Y-107066699D01*
X173969196Y-107710997D01*
X173658037Y-108332597D01*
X173339264Y-108914965D01*
X173242226Y-109079858D01*
X173125076Y-109272055D01*
X172996901Y-109477040D01*
X172863662Y-109685749D01*
X172731317Y-109889119D01*
X172605824Y-110078085D01*
X172493142Y-110243584D01*
X172399230Y-110376553D01*
X172330047Y-110467926D01*
X172291550Y-110508642D01*
X172228165Y-110533358D01*
X172128660Y-110539710D01*
X171990941Y-110519951D01*
X171802000Y-110473136D01*
X171675441Y-110435242D01*
X171255733Y-110264654D01*
X170874795Y-110036503D01*
X170533655Y-109752081D01*
X170233339Y-109412680D01*
X169974876Y-109019590D01*
X169759293Y-108574103D01*
X169587617Y-108077510D01*
X169460877Y-107531103D01*
X169450691Y-107468467D01*
X169426787Y-107251304D01*
X169410196Y-106988708D01*
X169401085Y-106698607D01*
X169399625Y-106398930D01*
X169405985Y-106107605D01*
X169420334Y-105842560D01*
X169442841Y-105621724D01*
X169451582Y-105559989D01*
X169527689Y-105106635D01*
X169621885Y-104663204D01*
X169727900Y-104259659D01*
X169786692Y-104070023D01*
X169834280Y-103941702D01*
X169870790Y-103876744D01*
X169897731Y-103872480D01*
X169916613Y-103926243D01*
X169927276Y-103983896D01*
X169948224Y-104098098D01*
X169975666Y-104248227D01*
X170006420Y-104416894D01*
X170029120Y-104531540D01*
X170083302Y-104767167D01*
X170146817Y-105010060D01*
X170210178Y-105222688D01*
X170226149Y-105272068D01*
X170277638Y-105439367D01*
X170310155Y-105569725D01*
X170327475Y-105686434D01*
X170333372Y-105812785D01*
X170331622Y-105972069D01*
X170331004Y-106167061D01*
X170344305Y-106497788D01*
X170373013Y-106834684D01*
X170414774Y-107152504D01*
X170467231Y-107426000D01*
X170590509Y-107856964D01*
X170776063Y-108310947D01*
X171006387Y-108718299D01*
X171279118Y-109075980D01*
X171591892Y-109380947D01*
X171942345Y-109630160D01*
X172328114Y-109820578D01*
X172339001Y-109824896D01*
X172454682Y-109869674D01*
X172541603Y-109901400D01*
X172581674Y-109913448D01*
X172599345Y-109898335D01*
X172640438Y-109833475D01*
X172692753Y-109733813D01*
X172747935Y-109617243D01*
X172797627Y-109501657D01*
X172833473Y-109404949D01*
X172847119Y-109345012D01*
X172845565Y-109308919D01*
X172830350Y-109250206D01*
X172788987Y-109197600D01*
X172709475Y-109138280D01*
X172579812Y-109059425D01*
X172416891Y-108946441D01*
X172205065Y-108753434D01*
X171997450Y-108517043D01*
X171805856Y-108250999D01*
X171642092Y-107969034D01*
X171565092Y-107811059D01*
X171523682Y-107704544D01*
X171522310Y-107654575D01*
X171562170Y-107659870D01*
X171644451Y-107719148D01*
X171770346Y-107831128D01*
X172021180Y-108051309D01*
X172290941Y-108264471D01*
X172557692Y-108453899D01*
X172800920Y-108604208D01*
X172913075Y-108664559D01*
X172992888Y-108698686D01*
X173041992Y-108703443D01*
X173075268Y-108683109D01*
X173097561Y-108642774D01*
X173136193Y-108538876D01*
X173184904Y-108383728D01*
X173241019Y-108186780D01*
X173301866Y-107957482D01*
X173364770Y-107705287D01*
X173427058Y-107439644D01*
X173460779Y-107299671D01*
X173516450Y-107097130D01*
X173585959Y-106873976D01*
X173672912Y-106619331D01*
X173780913Y-106322321D01*
X173913567Y-105972069D01*
X174043440Y-105613801D01*
X174190358Y-105163889D01*
X174333797Y-104680561D01*
X174468350Y-104182995D01*
X174588607Y-103690369D01*
X174689160Y-103221862D01*
X174698056Y-103177270D01*
X174734562Y-103002932D01*
X174768496Y-102853419D01*
X174796405Y-102743410D01*
X174814835Y-102687586D01*
X174825672Y-102671389D01*
X174860284Y-102648360D01*
X174924179Y-102634628D01*
X175030936Y-102627998D01*
X175194131Y-102626276D01*
X175290872Y-102627609D01*
G37*
G36*
X164463552Y-82196635D02*
G01*
X164650085Y-82243031D01*
X164857749Y-82309731D01*
X165072478Y-82392661D01*
X165280208Y-82487744D01*
X165411824Y-82555541D01*
X165557951Y-82640202D01*
X165684577Y-82729924D01*
X165813543Y-82840630D01*
X165966692Y-82988246D01*
X166084524Y-83110788D01*
X166387593Y-83489346D01*
X166638287Y-83908608D01*
X166837856Y-84371307D01*
X166987551Y-84880172D01*
X167088622Y-85437934D01*
X167114266Y-85709187D01*
X167127432Y-86038618D01*
X167127165Y-86394374D01*
X167113889Y-86754874D01*
X167088026Y-87098540D01*
X167050003Y-87403793D01*
X167033103Y-87506095D01*
X166991612Y-87729702D01*
X166944110Y-87957252D01*
X166893285Y-88178339D01*
X166841824Y-88382560D01*
X166792415Y-88559510D01*
X166747748Y-88698785D01*
X166710511Y-88789979D01*
X166683391Y-88822690D01*
X166669625Y-88808108D01*
X166647211Y-88741340D01*
X166628041Y-88638759D01*
X166599887Y-88475048D01*
X166553761Y-88259936D01*
X166495604Y-88019224D01*
X166430685Y-87773689D01*
X166364271Y-87544103D01*
X166301627Y-87351241D01*
X166292661Y-87325618D01*
X166255024Y-87210821D01*
X166227873Y-87106824D01*
X166208939Y-86997454D01*
X166195954Y-86866539D01*
X166186650Y-86697904D01*
X166178756Y-86475379D01*
X166175202Y-86379708D01*
X166162842Y-86152336D01*
X166146050Y-85931369D01*
X166126572Y-85738026D01*
X166106156Y-85593528D01*
X166031846Y-85254835D01*
X165883004Y-84789186D01*
X165688523Y-84356058D01*
X165452690Y-83963324D01*
X165179792Y-83618856D01*
X164874114Y-83330530D01*
X164810277Y-83281561D01*
X164636098Y-83163998D01*
X164444491Y-83052086D01*
X164253546Y-82955288D01*
X164081349Y-82883069D01*
X163945988Y-82844894D01*
X163824340Y-82825153D01*
X163707561Y-83090883D01*
X163690723Y-83129697D01*
X163630971Y-83287515D01*
X163610966Y-83402071D01*
X163633576Y-83487208D01*
X163701669Y-83556773D01*
X163818113Y-83624609D01*
X163907442Y-83678143D01*
X164065485Y-83799730D01*
X164237770Y-83957320D01*
X164410280Y-84136904D01*
X164569003Y-84324474D01*
X164699925Y-84506022D01*
X164713646Y-84527399D01*
X164810711Y-84687208D01*
X164892378Y-84836122D01*
X164952871Y-84962231D01*
X164986413Y-85053622D01*
X164987225Y-85098385D01*
X164971698Y-85094260D01*
X164913013Y-85054287D01*
X164822740Y-84981627D01*
X164712781Y-84885510D01*
X164581613Y-84770530D01*
X164370980Y-84598471D01*
X164156454Y-84436322D01*
X163949059Y-84291659D01*
X163759823Y-84172060D01*
X163599773Y-84085100D01*
X163479935Y-84038357D01*
X163473999Y-84036815D01*
X163446304Y-84029396D01*
X163422502Y-84027141D01*
X163400731Y-84035771D01*
X163379131Y-84061003D01*
X163355843Y-84108560D01*
X163329005Y-84184159D01*
X163296757Y-84293522D01*
X163257239Y-84442366D01*
X163208591Y-84636413D01*
X163148952Y-84881383D01*
X163076461Y-85182993D01*
X162989260Y-85546965D01*
X162957397Y-85667365D01*
X162901179Y-85857085D01*
X162830978Y-86078415D01*
X162752695Y-86312833D01*
X162672233Y-86541818D01*
X162567087Y-86841075D01*
X162338252Y-87556324D01*
X162134321Y-88285587D01*
X161961471Y-89005863D01*
X161825875Y-89694152D01*
X161804694Y-89805907D01*
X161772130Y-89946902D01*
X161740654Y-90052527D01*
X161714843Y-90105808D01*
X161706180Y-90112413D01*
X161635657Y-90135002D01*
X161523371Y-90149741D01*
X161387887Y-90156630D01*
X161247771Y-90155672D01*
X161121587Y-90146868D01*
X161027901Y-90130221D01*
X160985280Y-90105732D01*
X160981546Y-90089713D01*
X160982151Y-89999447D01*
X160999183Y-89852995D01*
X161030727Y-89658830D01*
X161074866Y-89425420D01*
X161129683Y-89161236D01*
X161193262Y-88874747D01*
X161263687Y-88574423D01*
X161339040Y-88268734D01*
X161417406Y-87966151D01*
X161496868Y-87675143D01*
X161575509Y-87404179D01*
X161651413Y-87161731D01*
X161800086Y-86730969D01*
X162080194Y-86006788D01*
X162400524Y-85268255D01*
X162752846Y-84532251D01*
X163128933Y-83815661D01*
X163520554Y-83135368D01*
X163919482Y-82508254D01*
X163960166Y-82448693D01*
X164067332Y-82304998D01*
X164150934Y-82217107D01*
X164216013Y-82179431D01*
X164312215Y-82174617D01*
X164463552Y-82196635D01*
G37*
G36*
X176681142Y-87036469D02*
G01*
X176698127Y-87124684D01*
X176722789Y-87291794D01*
X176749061Y-87506027D01*
X176775585Y-87754466D01*
X176801003Y-88024195D01*
X176823954Y-88302295D01*
X176843080Y-88575851D01*
X176883671Y-89222391D01*
X176727341Y-89521782D01*
X176565490Y-89821625D01*
X176331214Y-90231286D01*
X176068247Y-90669514D01*
X175785524Y-91122307D01*
X175491980Y-91575663D01*
X175196553Y-92015583D01*
X174908176Y-92428063D01*
X174635786Y-92799103D01*
X174268979Y-93272516D01*
X173598271Y-94078842D01*
X172919888Y-94818144D01*
X172231993Y-95492275D01*
X171532748Y-96103093D01*
X170820318Y-96652451D01*
X170387048Y-96965073D01*
X170487490Y-97009629D01*
X170588482Y-97052775D01*
X170701877Y-97098782D01*
X170815823Y-97143379D01*
X170439119Y-97396592D01*
X170090281Y-97638680D01*
X169310201Y-98240017D01*
X168579395Y-98890954D01*
X167898199Y-99591009D01*
X167266950Y-100339700D01*
X166685987Y-101136543D01*
X166155646Y-101981057D01*
X165676265Y-102872759D01*
X165248181Y-103811166D01*
X164871730Y-104795797D01*
X164547251Y-105826168D01*
X164426520Y-106268263D01*
X164324846Y-106682426D01*
X164245542Y-107063927D01*
X164185977Y-107428998D01*
X164143519Y-107793874D01*
X164115534Y-108174786D01*
X164099391Y-108587969D01*
X164098425Y-108628178D01*
X164102644Y-109316226D01*
X164148108Y-109950138D01*
X164235703Y-110532924D01*
X164366316Y-111067593D01*
X164540836Y-111557155D01*
X164760150Y-112004622D01*
X165025144Y-112413001D01*
X165336706Y-112785304D01*
X165416740Y-112867670D01*
X165755950Y-113164921D01*
X166118112Y-113400303D01*
X166507742Y-113575541D01*
X166929356Y-113692354D01*
X167387472Y-113752467D01*
X167886605Y-113757600D01*
X168135133Y-113741774D01*
X168538103Y-113689097D01*
X168932840Y-113599945D01*
X169338293Y-113469656D01*
X169773414Y-113293570D01*
X169858825Y-113256945D01*
X170009319Y-113199238D01*
X170100491Y-113175485D01*
X170132895Y-113184274D01*
X170107086Y-113224192D01*
X170023617Y-113293828D01*
X169883042Y-113391770D01*
X169685916Y-113516604D01*
X169543875Y-113601102D01*
X169011731Y-113874291D01*
X168474907Y-114080832D01*
X167926864Y-114223354D01*
X167902618Y-114228035D01*
X167663275Y-114261049D01*
X167379472Y-114281887D01*
X167073199Y-114290343D01*
X166766449Y-114286206D01*
X166481215Y-114269270D01*
X166239486Y-114239327D01*
X165738711Y-114123998D01*
X165195440Y-113933400D01*
X164654908Y-113676070D01*
X164121055Y-113353655D01*
X163913759Y-113208759D01*
X163734423Y-113064371D01*
X163590228Y-112918422D01*
X163471364Y-112757487D01*
X163368021Y-112568146D01*
X163270388Y-112336975D01*
X163168656Y-112050552D01*
X163110840Y-111872683D01*
X162980924Y-111408263D01*
X162887772Y-110954017D01*
X162828721Y-110491146D01*
X162801106Y-110000852D01*
X162802265Y-109464334D01*
X162814697Y-109145738D01*
X162894514Y-108236308D01*
X163038888Y-107315507D01*
X163245870Y-106389602D01*
X163513514Y-105464862D01*
X163839872Y-104547555D01*
X164222995Y-103643949D01*
X164660937Y-102760312D01*
X165151750Y-101902912D01*
X165538090Y-101298825D01*
X166004749Y-100629439D01*
X166490531Y-99992369D01*
X166989261Y-99394967D01*
X167494767Y-98844587D01*
X168000872Y-98348579D01*
X168501403Y-97914297D01*
X168558987Y-97868389D01*
X168753532Y-97719762D01*
X168979401Y-97554449D01*
X169219372Y-97384523D01*
X169456222Y-97222056D01*
X169672727Y-97079121D01*
X169851665Y-96967791D01*
X169856998Y-96964361D01*
X169867529Y-96943069D01*
X169835468Y-96917063D01*
X169752506Y-96881673D01*
X169610331Y-96832232D01*
X169542569Y-96809120D01*
X169423242Y-96765052D01*
X169341210Y-96730010D01*
X169311235Y-96710027D01*
X169320245Y-96699532D01*
X169375621Y-96653371D01*
X169472966Y-96578506D01*
X169602448Y-96482427D01*
X169754237Y-96372621D01*
X170374483Y-95902930D01*
X171110032Y-95276571D01*
X171825767Y-94590855D01*
X172516678Y-93851194D01*
X173177755Y-93063004D01*
X173803987Y-92231697D01*
X174390364Y-91362690D01*
X174562991Y-91086144D01*
X174882811Y-90546626D01*
X175209168Y-89963837D01*
X175533921Y-89353249D01*
X175848932Y-88730337D01*
X176146062Y-88110574D01*
X176417171Y-87509434D01*
X176486561Y-87351480D01*
X176559007Y-87192401D01*
X176611247Y-87087527D01*
X176646722Y-87030691D01*
X176668873Y-87015727D01*
X176681142Y-87036469D01*
G37*
G36*
X169778057Y-78340524D02*
G01*
X170073227Y-78362339D01*
X170325173Y-78398038D01*
X170815337Y-78518850D01*
X171346159Y-78707708D01*
X171865407Y-78951209D01*
X172357173Y-79242740D01*
X172387260Y-79262790D01*
X172594797Y-79409769D01*
X172763346Y-79550732D01*
X172901848Y-79698099D01*
X173019247Y-79864295D01*
X173124484Y-80061740D01*
X173226501Y-80302858D01*
X173334241Y-80600071D01*
X173366499Y-80695359D01*
X173529708Y-81255421D01*
X173641813Y-81806421D01*
X173706495Y-82370541D01*
X173727434Y-82969965D01*
X173718749Y-83380139D01*
X173674699Y-84024224D01*
X173595828Y-84699248D01*
X173484843Y-85389087D01*
X173344449Y-86077619D01*
X173177352Y-86748723D01*
X172986258Y-87386276D01*
X172726824Y-88112802D01*
X172354572Y-89002252D01*
X171927512Y-89882266D01*
X171452842Y-90738193D01*
X170937762Y-91555379D01*
X170773731Y-91795929D01*
X170210855Y-92568599D01*
X169637894Y-93273957D01*
X169053139Y-93913794D01*
X168454883Y-94489896D01*
X167841418Y-95004051D01*
X167211038Y-95458047D01*
X166847190Y-95699612D01*
X167120019Y-95799080D01*
X167163080Y-95814886D01*
X167282832Y-95860082D01*
X167369376Y-95894617D01*
X167406327Y-95912027D01*
X167405043Y-95915730D01*
X167366596Y-95950862D01*
X167283725Y-96015876D01*
X167166357Y-96103155D01*
X167024420Y-96205080D01*
X166989812Y-96229598D01*
X166481006Y-96602742D01*
X166010700Y-96974250D01*
X165560600Y-97359753D01*
X165112408Y-97774880D01*
X164647829Y-98235260D01*
X164556901Y-98328197D01*
X164314025Y-98579732D01*
X164104942Y-98802724D01*
X163916719Y-99011754D01*
X163736422Y-99221405D01*
X163551118Y-99446259D01*
X163347873Y-99700896D01*
X163238096Y-99841075D01*
X162851461Y-100353452D01*
X162482401Y-100874110D01*
X162126553Y-101410500D01*
X161779553Y-101970072D01*
X161437039Y-102560279D01*
X161094647Y-103188572D01*
X160748014Y-103862403D01*
X160392776Y-104589223D01*
X160024572Y-105376483D01*
X159944215Y-105551655D01*
X159900021Y-105218828D01*
X159891223Y-105149821D01*
X159863279Y-104895623D01*
X159837131Y-104608925D01*
X159814243Y-104310122D01*
X159796081Y-104019607D01*
X159784110Y-103757777D01*
X159779794Y-103545025D01*
X159779794Y-103233181D01*
X160096708Y-102681797D01*
X160503903Y-101997661D01*
X161044582Y-101156150D01*
X161609935Y-100345893D01*
X162195826Y-99571679D01*
X162798119Y-98838295D01*
X163412677Y-98150531D01*
X164035364Y-97513175D01*
X164662042Y-96931015D01*
X165288576Y-96408839D01*
X165910828Y-95951437D01*
X165999556Y-95890480D01*
X166114280Y-95810875D01*
X166198646Y-95751357D01*
X166238864Y-95721588D01*
X166230835Y-95702806D01*
X166171457Y-95670121D01*
X166072450Y-95633539D01*
X165985472Y-95604017D01*
X165906799Y-95571879D01*
X165876903Y-95551671D01*
X165879409Y-95547289D01*
X165921183Y-95510873D01*
X166003662Y-95449654D01*
X166112880Y-95374138D01*
X166183455Y-95326374D01*
X166845932Y-94840569D01*
X167497381Y-94296947D01*
X168126591Y-93706574D01*
X168722354Y-93080514D01*
X169273461Y-92429830D01*
X169768704Y-91765586D01*
X170078941Y-91296904D01*
X170532771Y-90523488D01*
X170950714Y-89700065D01*
X171329357Y-88834648D01*
X171665288Y-87935251D01*
X171955094Y-87009889D01*
X172195364Y-86066575D01*
X172219668Y-85955834D01*
X172334809Y-85310774D01*
X172407810Y-84660334D01*
X172439061Y-84013562D01*
X172428953Y-83379502D01*
X172377877Y-82767201D01*
X172286226Y-82185703D01*
X172154390Y-81644055D01*
X171982760Y-81151301D01*
X171777723Y-80719905D01*
X171512727Y-80295212D01*
X171206873Y-79917815D01*
X170864394Y-79591703D01*
X170489521Y-79320867D01*
X170086485Y-79109294D01*
X169659518Y-78960974D01*
X169635027Y-78954804D01*
X169424085Y-78917217D01*
X169166919Y-78892032D01*
X168883577Y-78879711D01*
X168594106Y-78880716D01*
X168318555Y-78895507D01*
X168076973Y-78924547D01*
X167950620Y-78948092D01*
X167620347Y-79027627D01*
X167267677Y-79133943D01*
X166918128Y-79258936D01*
X166597217Y-79394502D01*
X166465780Y-79452906D01*
X166339936Y-79500538D01*
X166271753Y-79514181D01*
X166260168Y-79495556D01*
X166304121Y-79446386D01*
X166402549Y-79368391D01*
X166554392Y-79263293D01*
X166758588Y-79132814D01*
X167030524Y-78972868D01*
X167541221Y-78720797D01*
X168058640Y-78529924D01*
X168595381Y-78395190D01*
X168607584Y-78392833D01*
X168854428Y-78358747D01*
X169146536Y-78338692D01*
X169461786Y-78332630D01*
X169778057Y-78340524D01*
G37*
G36*
X150005173Y-96051269D02*
G01*
X150098440Y-96054944D01*
X150442081Y-96080710D01*
X150742073Y-96127521D01*
X151018350Y-96200350D01*
X151290848Y-96304169D01*
X151579502Y-96443951D01*
X151687996Y-96504319D01*
X152005082Y-96723337D01*
X152282483Y-96981096D01*
X152512616Y-97268577D01*
X152687897Y-97576759D01*
X152800743Y-97896621D01*
X152826527Y-98013844D01*
X152868843Y-98386510D01*
X152849716Y-98743753D01*
X152771067Y-99079232D01*
X152634813Y-99386604D01*
X152442873Y-99659528D01*
X152197167Y-99891662D01*
X152137659Y-99936563D01*
X151961139Y-100058300D01*
X151769854Y-100172210D01*
X151556134Y-100281547D01*
X151312309Y-100389565D01*
X151030708Y-100499517D01*
X150703662Y-100614656D01*
X150323500Y-100738237D01*
X149882552Y-100873512D01*
X149627684Y-100951320D01*
X149276940Y-101064685D01*
X148984400Y-101169148D01*
X148743691Y-101267985D01*
X148548444Y-101364470D01*
X148392288Y-101461876D01*
X148268850Y-101563479D01*
X148171761Y-101672552D01*
X148094650Y-101792369D01*
X148052803Y-101873759D01*
X148014953Y-101976273D01*
X147997272Y-102088673D01*
X147992976Y-102240896D01*
X147993049Y-102254191D01*
X148026622Y-102530783D01*
X148122100Y-102778389D01*
X148280558Y-102998523D01*
X148503074Y-103192697D01*
X148790722Y-103362425D01*
X149004823Y-103454790D01*
X149388767Y-103561844D01*
X149789161Y-103604796D01*
X150199739Y-103584159D01*
X150614238Y-103500447D01*
X151026393Y-103354174D01*
X151429941Y-103145855D01*
X151507278Y-103095819D01*
X151667987Y-102972904D01*
X151819207Y-102835100D01*
X151943723Y-102698784D01*
X152024322Y-102580335D01*
X152031610Y-102566063D01*
X152070016Y-102493074D01*
X152090719Y-102457484D01*
X152093382Y-102457223D01*
X152140092Y-102471908D01*
X152233948Y-102507816D01*
X152361266Y-102559165D01*
X152508362Y-102620173D01*
X152661551Y-102685057D01*
X152807151Y-102748036D01*
X152931478Y-102803328D01*
X153020848Y-102845151D01*
X153061577Y-102867722D01*
X153066810Y-102888202D01*
X153044220Y-102958403D01*
X152988680Y-103062415D01*
X152908225Y-103188031D01*
X152810891Y-103323045D01*
X152704713Y-103455248D01*
X152597725Y-103572434D01*
X152525330Y-103642675D01*
X152194173Y-103909824D01*
X151812505Y-104143241D01*
X151391697Y-104337484D01*
X150943118Y-104487112D01*
X150478139Y-104586686D01*
X150414260Y-104595013D01*
X150202436Y-104609031D01*
X149951904Y-104611212D01*
X149684349Y-104602518D01*
X149421455Y-104583913D01*
X149184909Y-104556362D01*
X148996394Y-104520828D01*
X148573430Y-104387872D01*
X148182661Y-104208205D01*
X147835201Y-103987492D01*
X147535780Y-103729812D01*
X147289126Y-103439244D01*
X147099971Y-103119867D01*
X146973042Y-102775761D01*
X146954163Y-102686148D01*
X146931983Y-102502052D01*
X146920986Y-102292315D01*
X146921506Y-102080582D01*
X146933878Y-101890500D01*
X146958439Y-101745712D01*
X147010168Y-101590307D01*
X147160429Y-101304142D01*
X147376607Y-101033485D01*
X147656721Y-100780275D01*
X147998789Y-100546452D01*
X148400832Y-100333953D01*
X148634591Y-100230509D01*
X148985306Y-100089549D01*
X149389029Y-99940426D01*
X149837006Y-99786348D01*
X150320483Y-99630521D01*
X150492913Y-99575750D01*
X150799743Y-99471594D01*
X151049067Y-99375208D01*
X151248383Y-99282408D01*
X151405193Y-99189010D01*
X151526996Y-99090829D01*
X151621292Y-98983683D01*
X151695582Y-98863386D01*
X151724092Y-98795291D01*
X151762488Y-98619253D01*
X151773476Y-98414456D01*
X151756605Y-98205106D01*
X151711422Y-98015412D01*
X151639173Y-97857939D01*
X151481968Y-97647752D01*
X151267138Y-97459677D01*
X151001305Y-97299189D01*
X150691093Y-97171766D01*
X150635303Y-97153726D01*
X150518228Y-97120378D01*
X150406856Y-97098260D01*
X150282249Y-97085024D01*
X150125472Y-97078319D01*
X149917587Y-97075796D01*
X149763448Y-97076416D01*
X149513011Y-97087263D01*
X149300326Y-97114490D01*
X149104663Y-97162503D01*
X148905294Y-97235706D01*
X148681490Y-97338506D01*
X148515345Y-97431120D01*
X148316414Y-97568564D01*
X148134128Y-97721275D01*
X147984632Y-97875505D01*
X147884070Y-98017509D01*
X147879544Y-98025774D01*
X147818685Y-98107825D01*
X147765551Y-98123463D01*
X147758532Y-98120351D01*
X147697428Y-98087940D01*
X147592119Y-98028656D01*
X147455290Y-97949719D01*
X147299624Y-97858344D01*
X146884629Y-97612771D01*
X146964694Y-97465867D01*
X147011938Y-97394864D01*
X147101813Y-97281650D01*
X147216585Y-97150282D01*
X147342552Y-97017036D01*
X147498497Y-96868706D01*
X147837533Y-96606794D01*
X148211767Y-96395450D01*
X148628990Y-96230640D01*
X149096991Y-96108330D01*
X149164159Y-96094796D01*
X149312903Y-96068762D01*
X149451320Y-96052652D01*
X149599466Y-96045207D01*
X149777399Y-96045166D01*
X150005173Y-96051269D01*
G37*
G36*
X176670123Y-91792111D02*
G01*
X176675202Y-91821742D01*
X176670844Y-91925327D01*
X176649487Y-92082387D01*
X176613148Y-92283918D01*
X176563841Y-92520916D01*
X176503581Y-92784376D01*
X176434384Y-93065293D01*
X176358264Y-93354665D01*
X176277237Y-93643484D01*
X176193317Y-93922749D01*
X176072299Y-94310670D01*
X175716551Y-94711025D01*
X175461040Y-94992574D01*
X175119656Y-95352584D01*
X174766027Y-95709268D01*
X174406497Y-96057017D01*
X174047412Y-96390218D01*
X173695116Y-96703262D01*
X173355956Y-96990536D01*
X173036277Y-97246430D01*
X172742423Y-97465332D01*
X172480741Y-97641632D01*
X172257575Y-97769719D01*
X172051535Y-97878531D01*
X171474973Y-98231440D01*
X170910430Y-98647089D01*
X170361766Y-99120307D01*
X169832838Y-99645923D01*
X169327506Y-100218767D01*
X168849628Y-100833668D01*
X168403061Y-101485456D01*
X167991666Y-102168960D01*
X167619300Y-102879010D01*
X167289821Y-103610435D01*
X167007088Y-104358064D01*
X166774960Y-105116727D01*
X166603870Y-105832795D01*
X166475668Y-106573399D01*
X166403783Y-107286539D01*
X166388270Y-107969446D01*
X166429185Y-108619349D01*
X166526584Y-109233480D01*
X166680523Y-109809070D01*
X166768220Y-110057789D01*
X166982507Y-110545999D01*
X167233679Y-110974889D01*
X167522375Y-111345017D01*
X167849231Y-111656946D01*
X168214884Y-111911235D01*
X168619972Y-112108445D01*
X169065130Y-112249135D01*
X169550996Y-112333866D01*
X169671473Y-112344448D01*
X170050576Y-112346051D01*
X170460148Y-112305568D01*
X170882333Y-112224467D01*
X171008942Y-112195524D01*
X171123372Y-112174998D01*
X171183401Y-112175198D01*
X171196288Y-112196499D01*
X171169292Y-112239276D01*
X171151060Y-112270469D01*
X171159915Y-112309549D01*
X171168854Y-112308830D01*
X171221084Y-112273319D01*
X171310458Y-112195095D01*
X171430293Y-112081128D01*
X171573910Y-111938391D01*
X171734627Y-111773854D01*
X171905765Y-111594489D01*
X172080642Y-111407268D01*
X172252577Y-111219161D01*
X172414891Y-111037140D01*
X172560901Y-110868176D01*
X172683929Y-110719241D01*
X172826669Y-110537893D01*
X173338218Y-109838699D01*
X173829534Y-109090858D01*
X174290730Y-108310847D01*
X174711920Y-107515143D01*
X175083218Y-106720226D01*
X175111288Y-106655159D01*
X175336019Y-106097452D01*
X175549151Y-105504940D01*
X175745030Y-104896110D01*
X175918005Y-104289449D01*
X176062426Y-103703442D01*
X176172641Y-103156578D01*
X176190981Y-103053879D01*
X176226952Y-102880692D01*
X176265671Y-102761883D01*
X176315756Y-102687244D01*
X176385826Y-102646568D01*
X176484498Y-102629648D01*
X176620392Y-102626276D01*
X176717747Y-102627476D01*
X176819580Y-102635420D01*
X176875827Y-102653463D01*
X176901228Y-102684669D01*
X176902060Y-102687353D01*
X176903297Y-102748707D01*
X176892837Y-102862060D01*
X176872430Y-103012200D01*
X176843824Y-103183911D01*
X176712343Y-103826163D01*
X176468922Y-104753280D01*
X176166598Y-105666103D01*
X175808342Y-106559690D01*
X175397127Y-107429101D01*
X174935926Y-108269395D01*
X174427711Y-109075629D01*
X173875456Y-109842865D01*
X173282132Y-110566159D01*
X172650712Y-111240572D01*
X171984169Y-111861162D01*
X171285475Y-112422989D01*
X171258887Y-112442742D01*
X171096522Y-112561881D01*
X170980069Y-112643016D01*
X170901244Y-112690513D01*
X170851764Y-112708739D01*
X170823346Y-112702060D01*
X170807707Y-112674842D01*
X170781734Y-112664893D01*
X170699950Y-112676540D01*
X170559771Y-112713917D01*
X170358098Y-112777734D01*
X169967679Y-112895260D01*
X169584630Y-112987073D01*
X169239104Y-113045106D01*
X169166987Y-113049699D01*
X169037007Y-113052077D01*
X168873597Y-113051450D01*
X168696070Y-113047726D01*
X168580103Y-113042540D01*
X168100262Y-112981496D01*
X167651873Y-112858142D01*
X167235974Y-112673236D01*
X166853600Y-112427530D01*
X166505790Y-112121780D01*
X166193578Y-111756740D01*
X165918001Y-111333165D01*
X165680096Y-110851809D01*
X165584491Y-110615440D01*
X165468808Y-110272422D01*
X165381274Y-109923734D01*
X165318832Y-109553737D01*
X165278424Y-109146786D01*
X165256993Y-108687241D01*
X165254885Y-108589417D01*
X165274514Y-107751461D01*
X165360034Y-106902531D01*
X165509748Y-106048663D01*
X165721956Y-105195895D01*
X165994960Y-104350265D01*
X166327062Y-103517810D01*
X166716563Y-102704567D01*
X167161766Y-101916573D01*
X167471211Y-101428953D01*
X167970023Y-100714681D01*
X168492075Y-100049233D01*
X169033972Y-99436141D01*
X169592322Y-98878935D01*
X170163731Y-98381145D01*
X170744803Y-97946304D01*
X171332145Y-97577942D01*
X171382296Y-97548244D01*
X171453116Y-97500269D01*
X171481041Y-97471828D01*
X171481025Y-97471382D01*
X171449656Y-97449902D01*
X171376208Y-97428910D01*
X171374064Y-97428476D01*
X171301629Y-97405764D01*
X171272289Y-97380738D01*
X171280299Y-97369109D01*
X171333587Y-97323003D01*
X171425770Y-97253984D01*
X171543806Y-97172074D01*
X171821807Y-96976890D01*
X172248592Y-96648893D01*
X172695826Y-96274884D01*
X173154484Y-95863310D01*
X173615539Y-95422616D01*
X174069965Y-94961249D01*
X174508735Y-94487655D01*
X174922825Y-94010278D01*
X175047393Y-93859546D01*
X175256076Y-93600659D01*
X175479728Y-93316851D01*
X175708344Y-93021219D01*
X175931917Y-92726858D01*
X176140441Y-92446863D01*
X176323910Y-92194330D01*
X176472319Y-91982354D01*
X176487321Y-91960396D01*
X176567646Y-91847600D01*
X176620023Y-91786633D01*
X176651750Y-91770476D01*
X176670123Y-91792111D01*
G37*
G36*
X167662552Y-79628425D02*
G01*
X167841988Y-79629402D01*
X168034348Y-79632356D01*
X168182064Y-79638538D01*
X168299756Y-79649424D01*
X168402043Y-79666493D01*
X168503543Y-79691223D01*
X168618874Y-79725090D01*
X169020627Y-79871892D01*
X169378095Y-80056889D01*
X169702690Y-80288449D01*
X170010354Y-80576325D01*
X170019235Y-80585659D01*
X170231919Y-80825916D01*
X170413938Y-81070392D01*
X170579903Y-81340622D01*
X170744427Y-81658138D01*
X170846117Y-81880786D01*
X170970481Y-82202861D01*
X171077088Y-82550062D01*
X171173421Y-82944834D01*
X171178483Y-82968016D01*
X171200970Y-83078172D01*
X171218416Y-83183000D01*
X171231448Y-83293272D01*
X171240688Y-83419757D01*
X171246763Y-83573226D01*
X171250298Y-83764449D01*
X171251917Y-84004198D01*
X171252245Y-84303241D01*
X171250877Y-84636751D01*
X171245700Y-84947007D01*
X171235345Y-85217110D01*
X171218443Y-85462635D01*
X171193621Y-85699154D01*
X171159508Y-85942241D01*
X171114734Y-86207470D01*
X171057926Y-86510414D01*
X171038548Y-86608679D01*
X170838654Y-87460361D01*
X170585468Y-88285213D01*
X170275811Y-89090808D01*
X169906501Y-89884720D01*
X169474358Y-90674524D01*
X168976202Y-91467793D01*
X168580610Y-92038522D01*
X168124401Y-92639831D01*
X167663976Y-93183745D01*
X167193001Y-93676841D01*
X166705137Y-94125697D01*
X166194047Y-94536891D01*
X165653397Y-94917001D01*
X165529999Y-94998541D01*
X165428202Y-95068539D01*
X165372023Y-95114081D01*
X165354309Y-95142756D01*
X165367908Y-95162155D01*
X165405667Y-95179867D01*
X165499338Y-95218155D01*
X165293562Y-95354782D01*
X164758540Y-95729890D01*
X164049877Y-96287853D01*
X163343062Y-96913889D01*
X162639236Y-97606859D01*
X161939541Y-98365624D01*
X161245117Y-99189049D01*
X160557108Y-100075993D01*
X160506038Y-100144493D01*
X160357842Y-100342552D01*
X160244926Y-100491218D01*
X160162351Y-100595850D01*
X160105177Y-100661805D01*
X160068467Y-100694444D01*
X160047280Y-100699126D01*
X160036679Y-100681208D01*
X160031724Y-100646050D01*
X160032450Y-100564315D01*
X160052178Y-100404442D01*
X160091343Y-100193881D01*
X160147821Y-99941432D01*
X160219488Y-99655895D01*
X160304217Y-99346070D01*
X160399884Y-99020756D01*
X160504364Y-98688755D01*
X160662728Y-98202130D01*
X161017836Y-97812893D01*
X161411736Y-97391928D01*
X161940137Y-96858855D01*
X162472637Y-96355986D01*
X163000304Y-95891400D01*
X163514209Y-95473179D01*
X164005420Y-95109404D01*
X164037496Y-95087043D01*
X164205031Y-94974815D01*
X164330106Y-94901188D01*
X164422574Y-94860883D01*
X164492290Y-94848621D01*
X164493833Y-94848605D01*
X164577865Y-94825876D01*
X164706994Y-94763674D01*
X164872836Y-94667391D01*
X165067008Y-94542416D01*
X165281124Y-94394139D01*
X165506801Y-94227951D01*
X165735656Y-94049242D01*
X166231206Y-93616967D01*
X166737036Y-93106081D01*
X167226128Y-92542163D01*
X167692653Y-91933807D01*
X168130781Y-91289604D01*
X168534682Y-90618148D01*
X168898528Y-89928032D01*
X169216487Y-89227848D01*
X169482731Y-88526188D01*
X169660483Y-87973909D01*
X169836660Y-87331487D01*
X169968972Y-86714805D01*
X170059857Y-86110075D01*
X170111753Y-85503507D01*
X170127098Y-84881310D01*
X170120699Y-84503717D01*
X170100868Y-84146542D01*
X170065136Y-83825033D01*
X170010950Y-83521775D01*
X169935761Y-83219354D01*
X169837020Y-82900357D01*
X169803467Y-82802385D01*
X169616196Y-82332246D01*
X169404164Y-81921531D01*
X169163706Y-81563857D01*
X168891159Y-81252841D01*
X168716860Y-81090959D01*
X168346414Y-80816656D01*
X167943198Y-80602417D01*
X167510760Y-80449083D01*
X167052650Y-80357498D01*
X166572416Y-80328504D01*
X166073607Y-80362944D01*
X165559772Y-80461662D01*
X165483418Y-80480341D01*
X165356976Y-80508409D01*
X165266606Y-80524592D01*
X165228130Y-80525830D01*
X165225806Y-80503710D01*
X165247638Y-80444842D01*
X165259891Y-80420413D01*
X165268792Y-80384315D01*
X165242029Y-80390659D01*
X165177336Y-80441353D01*
X165072451Y-80538306D01*
X164925110Y-80683426D01*
X164733049Y-80878621D01*
X164317967Y-81323218D01*
X163885502Y-81833023D01*
X163469407Y-82376734D01*
X163055592Y-82971931D01*
X162844821Y-83294217D01*
X162418738Y-83988836D01*
X162039146Y-84674335D01*
X161696372Y-85368721D01*
X161380746Y-86090000D01*
X161331759Y-86210469D01*
X161115978Y-86780665D01*
X160915278Y-87374996D01*
X160734383Y-87976956D01*
X160578020Y-88570035D01*
X160450914Y-89137725D01*
X160357791Y-89663517D01*
X160325926Y-89855717D01*
X160290947Y-89992437D01*
X160244196Y-90081889D01*
X160176550Y-90135407D01*
X160078887Y-90164325D01*
X159942084Y-90179976D01*
X159839280Y-90185917D01*
X159717063Y-90178498D01*
X159647316Y-90143760D01*
X159620318Y-90075116D01*
X159626350Y-89965978D01*
X159749604Y-89244073D01*
X159982222Y-88233417D01*
X160281805Y-87243033D01*
X160648094Y-86273582D01*
X161080832Y-85325726D01*
X161579761Y-84400128D01*
X162144623Y-83497448D01*
X162283720Y-83293120D01*
X162783172Y-82608880D01*
X163296362Y-81983823D01*
X163830981Y-81409539D01*
X164394718Y-80877617D01*
X164995263Y-80379645D01*
X165128719Y-80275846D01*
X165283746Y-80156167D01*
X165396267Y-80071675D01*
X165473866Y-80017657D01*
X165524127Y-79989401D01*
X165554634Y-79982193D01*
X165572970Y-79991320D01*
X165586720Y-80012069D01*
X165599552Y-80028756D01*
X165631284Y-80039971D01*
X165688981Y-80031557D01*
X165785541Y-80001060D01*
X165933864Y-79946027D01*
X166018156Y-79915136D01*
X166217159Y-79848193D01*
X166433195Y-79781484D01*
X166632394Y-79725690D01*
X166741343Y-79697922D01*
X166865733Y-79669632D01*
X166980545Y-79650030D01*
X167101705Y-79637613D01*
X167245141Y-79630875D01*
X167426781Y-79628314D01*
X167662552Y-79628425D01*
G37*
%TD*%
M02*
